{"glyphs":{"0":{"ha":678,"x_min":0,"x_max":543,"o":"m 0 678 q 79 870 0 791 q 271 949 159 949 q 463 870 384 949 q 543 678 543 791 l 543 271 q 463 79 543 159 q 271 0 384 0 q 79 79 159 0 q 0 271 0 159 l 0 678 m 319 523 q 329 513 319 523 q 339 475 339 503 q 319 427 339 447 q 271 407 299 407 q 223 427 243 407 q 203 475 203 447 q 223 523 203 503 q 271 543 243 543 q 319 523 299 543 m 407 678 q 367 774 407 734 q 271 814 328 814 q 175 774 215 814 q 136 678 136 734 l 136 271 q 175 175 136 215 q 271 136 215 136 q 367 175 328 136 q 407 271 407 215 l 407 678 z "},"1":{"ha":678,"x_min":0,"x_max":543,"o":"m 475 136 q 523 116 503 136 q 543 68 543 96 q 523 20 543 40 q 475 0 503 0 l 68 0 q 20 20 40 0 q 0 68 0 40 q 20 116 0 96 q 68 136 40 136 l 203 136 l 203 814 l 68 814 q 20 834 40 814 q 0 882 0 854 q 20 929 0 909 q 68 949 40 949 l 271 949 q 319 929 299 949 q 339 882 339 909 l 339 136 l 475 136 z "},"2":{"ha":678,"x_min":0,"x_max":543,"o":"m 407 678 q 367 774 407 734 q 237 814 328 814 q 121 774 161 814 l 120 773 q 72 753 100 753 q 24 773 44 753 q 4 821 4 793 q 24 869 4 848 q 26 869 25 869 l 25 870 q 237 949 104 949 q 463 870 384 949 q 543 678 543 791 q 463 486 543 566 q 271 407 384 407 q 175 367 215 407 q 136 271 136 328 l 136 136 l 407 136 l 407 203 q 427 251 407 231 q 475 271 447 271 q 523 251 503 271 q 543 203 543 231 l 543 68 q 523 20 543 40 q 475 0 503 0 l 68 0 q 20 20 40 0 q 0 68 0 40 l 0 271 q 79 463 0 384 q 271 543 159 543 q 367 582 328 543 q 407 678 407 622 z "},"3":{"ha":678,"x_min":4,"x_max":543,"o":"m 271 407 l 203 407 q 156 427 176 407 q 136 475 136 447 q 156 523 136 503 q 203 543 176 543 l 271 543 q 367 582 328 543 q 407 678 407 622 q 367 774 407 734 q 237 814 328 814 q 121 774 161 814 l 120 773 q 72 753 100 753 q 24 773 44 753 q 4 821 4 793 q 24 869 4 848 q 26 869 25 869 l 25 870 q 237 949 104 949 q 463 870 384 949 q 543 678 543 791 q 463 486 543 566 q 451 475 457 480 q 463 463 457 469 q 543 271 543 384 q 463 79 543 159 q 237 0 384 0 q 25 79 104 0 l 26 80 q 24 81 25 80 q 4 129 4 101 q 24 177 4 157 q 72 197 44 197 q 120 177 100 197 q 121 176 120 176 q 237 136 161 136 q 367 175 328 136 q 407 271 407 215 q 367 367 407 328 q 271 407 328 407 z "},"4":{"ha":678,"x_min":0,"x_max":543,"o":"m 0 882 q 20 929 0 909 q 68 949 40 949 q 116 929 96 949 q 136 882 136 909 l 136 543 l 407 543 l 407 882 q 427 929 407 909 q 475 949 447 949 q 523 929 503 949 q 543 882 543 909 l 543 68 q 523 20 543 40 q 475 0 503 0 q 427 20 447 0 q 407 68 407 40 l 407 407 l 68 407 q 20 427 40 407 q 0 475 0 447 l 0 882 z "},"5":{"ha":678,"x_min":0,"x_max":543,"o":"m 543 746 q 523 698 543 718 q 475 678 503 678 q 427 698 447 678 q 407 746 407 718 l 407 814 l 136 814 l 136 543 l 271 543 q 463 463 384 543 q 543 271 543 384 q 463 79 543 159 q 237 0 384 0 q 25 79 104 0 l 26 80 q 24 81 25 80 q 4 129 4 101 q 24 177 4 157 q 72 197 44 197 q 120 177 100 197 q 121 176 120 176 q 237 136 161 136 q 367 175 328 136 q 407 271 407 215 q 367 367 407 328 q 271 407 328 407 l 68 407 q 20 427 40 407 q 0 475 0 447 l 0 882 q 20 929 0 909 q 68 949 40 949 l 475 949 q 523 929 503 949 q 543 882 543 909 l 543 746 z "},"6":{"ha":678,"x_min":0,"x_max":543,"o":"m 543 271 q 463 79 543 159 q 271 0 384 0 q 79 79 159 0 q 0 271 0 159 l 0 678 q 79 870 0 791 q 305 949 159 949 q 517 870 438 949 l 517 869 q 519 869 517 869 q 538 821 538 848 q 518 773 538 793 q 471 753 498 753 q 423 773 443 753 q 422 774 422 773 q 305 814 382 814 q 175 774 215 814 q 136 678 136 734 l 136 575 q 271 610 196 610 q 463 531 384 610 q 543 339 543 452 l 543 271 m 136 271 q 175 175 136 215 q 271 136 215 136 q 367 175 328 136 q 407 271 407 215 l 407 339 q 367 435 407 395 q 271 475 328 475 q 175 435 215 475 q 136 339 136 395 l 136 271 z "},"7":{"ha":678,"x_min":0,"x_max":543,"o":"m 475 949 q 523 929 503 949 q 543 882 543 909 q 529 841 543 859 l 530 840 l 129 38 q 116 20 124 28 q 68 0 96 0 q 20 20 40 0 q 0 68 0 40 q 14 109 0 91 l 13 110 l 365 814 l 68 814 q 20 834 40 814 q 0 882 0 854 q 20 929 0 909 q 68 949 40 949 l 475 949 z "},"8":{"ha":678,"x_min":0,"x_max":543,"o":"m 271 407 q 175 367 215 407 q 136 271 136 328 q 175 175 136 215 q 271 136 215 136 q 367 175 328 136 q 407 271 407 215 q 367 367 407 328 q 271 407 328 407 m 271 949 q 463 870 384 949 q 543 678 543 791 q 463 486 543 566 q 451 475 457 480 q 463 463 457 469 q 543 271 543 384 q 463 79 543 159 q 271 0 384 0 q 79 79 159 0 q 0 271 0 159 q 79 463 0 384 q 92 475 85 469 q 79 486 85 480 q 0 678 0 566 q 79 870 0 791 q 271 949 159 949 m 271 543 q 367 582 328 543 q 407 678 407 622 q 367 774 407 734 q 271 814 328 814 q 175 774 215 814 q 136 678 136 734 q 175 582 136 622 q 271 543 215 543 z "},"9":{"ha":678,"x_min":0,"x_max":543,"o":"m 0 678 q 79 870 0 791 q 271 949 159 949 q 463 870 384 949 q 543 678 543 791 l 543 271 q 463 79 543 159 q 237 0 384 0 q 25 79 104 0 l 26 80 q 24 81 25 80 q 4 129 4 101 q 24 177 4 157 q 72 197 44 197 q 120 177 100 197 q 121 176 120 176 q 237 136 161 136 q 367 175 328 136 q 407 271 407 215 l 407 374 q 271 339 347 339 q 79 418 159 339 q 0 610 0 498 l 0 678 m 407 678 q 367 774 407 734 q 271 814 328 814 q 175 774 215 814 q 136 678 136 734 l 136 610 q 175 514 136 554 q 271 475 215 475 q 367 514 328 475 q 407 610 407 554 l 407 678 z "},"\u0000":{"ha":0,"x_min":0,"x_max":0,"o":""}," ":{"ha":678,"x_min":0,"x_max":0,"o":""},"!":{"ha":678,"x_min":203,"x_max":339,"o":"m 339 339 q 319 291 339 311 q 271 271 299 271 q 223 291 243 271 q 203 339 203 311 l 203 882 q 223 929 203 909 q 271 949 243 949 q 319 929 299 949 q 339 882 339 909 l 339 339 m 223 20 q 213 30 223 20 q 203 68 203 40 q 223 116 203 96 q 271 136 243 136 q 319 116 299 136 q 339 68 339 96 q 319 20 339 40 q 271 0 299 0 q 223 20 243 0 z "},"\"":{"ha":678,"x_min":102,"x_max":441,"o":"m 102 882 q 122 929 102 909 q 170 949 142 949 q 217 929 197 949 q 237 882 237 909 l 237 746 q 217 698 237 718 q 170 678 197 678 q 122 698 142 678 q 102 746 102 718 l 102 882 m 305 882 q 325 929 305 909 q 373 949 345 949 q 421 929 401 949 q 441 882 441 909 l 441 746 q 421 698 441 718 q 373 678 401 678 q 325 698 345 678 q 305 746 305 718 l 305 882 z "},"#":{"ha":678,"x_min":0,"x_max":543,"o":"m 441 271 l 475 271 q 523 251 503 271 q 543 203 543 231 q 523 156 543 176 q 475 136 503 136 l 441 136 l 441 68 q 421 20 441 40 q 373 0 401 0 q 325 20 345 0 q 305 68 305 40 l 305 136 l 237 136 l 237 68 q 217 20 237 40 q 170 0 197 0 q 122 20 142 0 q 102 68 102 40 l 102 136 l 68 136 q 20 156 40 136 q 0 203 0 176 q 20 251 0 231 q 68 271 40 271 l 102 271 l 102 678 l 68 678 q 20 698 40 678 q 0 746 0 718 q 20 794 0 774 q 68 814 40 814 l 102 814 l 102 882 q 122 929 102 909 q 170 949 142 949 q 217 929 197 949 q 237 882 237 909 l 237 814 l 305 814 l 305 882 q 325 929 305 909 q 373 949 345 949 q 421 929 401 949 q 441 882 441 909 l 441 814 l 475 814 q 523 794 503 814 q 543 746 543 774 q 523 698 543 718 q 475 678 503 678 l 441 678 l 441 271 m 237 678 l 237 271 l 305 271 l 305 678 l 237 678 z "},"$":{"ha":678,"x_min":0,"x_max":543,"o":"m 339 389 l 339 155 q 368 176 355 163 q 407 271 407 215 q 368 368 407 328 q 339 389 354 380 m 203 415 q 79 486 134 432 q 0 678 0 566 q 79 870 0 791 q 203 938 128 919 l 203 1017 q 223 1065 203 1045 q 271 1085 243 1085 q 319 1065 299 1085 q 339 1017 339 1045 l 339 948 q 517 870 448 939 l 517 869 q 519 869 517 869 q 538 821 538 848 q 518 773 538 793 q 471 753 498 753 q 423 773 443 753 q 422 774 422 773 q 339 812 391 804 l 339 534 q 463 463 409 517 q 543 271 543 384 q 463 79 543 159 q 339 12 414 31 l 339 -68 q 319 -116 339 -96 q 271 -136 299 -136 q 223 -116 243 -136 q 203 -68 203 -96 l 203 1 q 25 79 94 10 l 26 80 q 24 81 25 80 q 4 129 4 101 q 24 177 4 157 q 72 197 44 197 q 120 177 100 197 q 121 176 120 176 q 203 138 151 145 l 203 415 m 203 560 l 203 794 q 176 774 187 786 q 136 678 136 734 q 176 583 136 622 q 203 560 189 569 z "},"%":{"ha":678,"x_min":0,"x_max":543,"o":"m 530 840 l 129 38 q 116 20 124 28 q 68 0 96 0 q 20 20 40 0 q 0 68 0 40 q 14 109 0 91 l 13 110 l 414 911 q 427 930 418 921 q 475 949 447 949 q 523 929 503 949 q 543 882 543 909 q 529 841 543 859 l 530 840 m 102 949 q 174 920 144 949 q 203 848 203 890 q 174 776 203 806 q 102 746 144 746 q 30 776 60 746 q 0 848 0 806 q 30 920 0 890 q 102 949 60 949 m 441 203 q 513 174 483 203 q 543 102 543 144 q 513 30 543 60 q 441 0 483 0 q 369 30 399 0 q 339 102 339 60 q 369 174 339 144 q 441 203 399 203 z "},"&":{"ha":678,"x_min":0,"x_max":543,"o":"m 271 543 l 407 543 l 407 584 q 427 632 407 612 q 475 652 447 652 q 523 632 503 652 q 543 584 543 612 l 543 136 q 519 81 538 101 q 517 80 517 80 l 517 79 q 305 0 438 0 q 79 79 159 0 q 0 271 0 159 q 79 463 0 384 q 92 475 85 469 q 79 486 85 480 q 0 678 0 566 q 79 870 0 791 q 305 949 159 949 q 517 870 438 949 l 517 869 q 519 869 517 869 q 538 821 538 848 q 518 773 538 793 q 471 753 498 753 q 423 773 443 753 q 422 774 422 773 q 305 814 382 814 q 175 774 215 814 q 136 678 136 734 q 175 582 136 622 q 271 543 215 543 m 407 407 l 271 407 q 175 367 215 407 q 136 271 136 328 q 175 175 136 215 q 305 136 215 136 q 407 163 368 136 l 407 407 z "},"'":{"ha":678,"x_min":203,"x_max":339,"o":"m 203 882 q 223 929 203 909 q 271 949 243 949 q 319 929 299 949 q 339 882 339 909 l 339 746 q 319 698 339 718 q 271 678 299 678 q 223 698 243 678 q 203 746 203 718 l 203 882 z "},"(":{"ha":678,"x_min":102,"x_max":441,"o":"m 373 1085 q 421 1065 401 1085 q 441 1017 441 1045 q 421 969 441 989 q 373 949 401 949 q 277 910 317 949 q 237 814 237 870 l 237 136 q 277 40 237 79 q 373 0 317 0 q 421 -20 401 0 q 441 -68 441 -40 q 421 -116 441 -96 q 373 -136 401 -136 q 181 -56 260 -136 q 102 136 102 23 l 102 814 q 181 1006 102 926 q 373 1085 260 1085 z "},")":{"ha":678,"x_min":102,"x_max":441,"o":"m 170 949 q 122 969 142 949 q 102 1017 102 989 q 122 1065 102 1045 q 170 1085 142 1085 q 361 1006 282 1085 q 441 814 441 926 l 441 136 q 361 -56 441 23 q 170 -136 282 -136 q 122 -116 142 -136 q 102 -68 102 -96 q 122 -20 102 -40 q 170 0 142 0 q 266 40 226 0 q 305 136 305 79 l 305 814 q 266 910 305 870 q 170 949 226 949 z "},"*":{"ha":678,"x_min":22,"x_max":520,"o":"m 339 560 l 339 475 q 319 427 339 447 q 271 407 299 407 q 223 427 243 407 q 203 475 203 447 l 203 560 l 129 517 q 78 511 105 504 q 37 543 50 518 q 30 594 22 567 q 61 635 37 621 l 135 678 l 61 721 q 30 762 37 735 q 37 814 22 789 q 78 845 50 838 q 129 839 105 852 l 203 796 l 203 882 q 223 929 203 909 q 271 949 243 949 q 319 929 299 949 q 339 882 339 909 l 339 796 l 414 839 q 465 845 437 852 q 506 814 492 838 q 513 762 520 789 q 481 721 505 735 l 408 678 l 481 635 q 513 594 505 621 q 506 543 520 567 q 465 511 492 518 q 414 517 437 504 l 339 560 z "},"+":{"ha":678,"x_min":0,"x_max":543,"o":"m 203 407 l 68 407 q 20 427 40 407 q 0 475 0 447 q 20 523 0 503 q 68 543 40 543 l 203 543 l 203 678 q 223 726 203 706 q 271 746 243 746 q 319 726 299 746 q 339 678 339 706 l 339 543 l 475 543 q 523 523 503 543 q 543 475 543 503 q 523 427 543 447 q 475 407 503 407 l 339 407 l 339 271 q 319 223 339 243 q 271 203 299 203 q 223 223 243 203 q 203 271 203 243 l 203 407 z "},",":{"ha":678,"x_min":203,"x_max":339,"o":"m 203 68 q 223 116 203 96 q 271 136 243 136 q 319 116 299 136 q 339 68 339 96 l 339 -68 q 319 -116 339 -96 q 271 -136 299 -136 q 223 -116 243 -136 q 203 -68 203 -96 l 203 68 z "},"-":{"ha":678,"x_min":68,"x_max":475,"o":"m 136 407 q 88 427 108 407 q 68 475 68 447 q 88 523 68 503 q 136 543 108 543 l 407 543 q 455 523 435 543 q 475 475 475 503 q 455 427 475 447 q 407 407 435 407 l 136 407 z "},".":{"ha":678,"x_min":170,"x_max":373,"o":"m 271 203 q 343 174 313 203 q 373 102 373 144 q 343 30 373 60 q 271 0 313 0 q 199 30 229 0 q 170 102 170 60 q 199 174 170 144 q 271 203 229 203 z "},"/":{"ha":678,"x_min":0,"x_max":543,"o":"m 530 840 l 129 38 q 116 20 124 28 q 68 0 96 0 q 20 20 40 0 q 0 68 0 40 q 14 109 0 91 l 13 110 l 414 911 q 427 930 418 921 q 475 949 447 949 q 523 929 503 949 q 543 882 543 909 q 529 841 543 859 l 530 840 z "},":":{"ha":678,"x_min":170,"x_max":373,"o":"m 271 203 q 343 174 313 203 q 373 102 373 144 q 343 30 373 60 q 271 0 313 0 q 199 30 229 0 q 170 102 170 60 q 199 174 170 144 q 271 203 229 203 m 271 694 q 343 665 313 694 q 373 593 373 635 q 343 521 373 551 q 271 491 313 491 q 199 521 229 491 q 170 593 170 551 q 199 665 170 635 q 271 694 229 694 z "},";":{"ha":678,"x_min":165,"x_max":377,"o":"m 271 694 q 343 665 313 694 q 373 593 373 635 q 343 521 373 551 q 271 491 313 491 q 199 521 229 491 q 170 593 170 551 q 199 665 170 635 q 271 694 229 694 m 244 92 q 285 124 258 117 q 336 119 312 132 q 369 78 361 106 q 363 27 377 51 l 298 -92 q 258 -124 285 -117 q 206 -119 231 -132 q 174 -78 182 -106 q 179 -27 165 -51 l 244 92 z "},"<":{"ha":678,"x_min":-1,"x_max":547,"o":"m 500 324 q 534 293 522 317 q 541 242 547 269 q 517 201 536 216 q 476 192 498 186 l 44 378 q 11 413 22 392 q 2 460 -1 433 l 2 486 q 11 534 -1 513 q 44 568 22 555 l 476 755 q 517 746 498 761 q 542 705 536 731 q 535 653 547 677 q 501 623 523 629 l 165 473 l 500 324 z "},"=":{"ha":678,"x_min":0,"x_max":543,"o":"m 68 543 q 20 563 40 543 q 0 610 0 583 q 20 658 0 638 q 68 678 40 678 l 475 678 q 523 658 503 678 q 543 610 543 638 q 523 563 543 583 q 475 543 503 543 l 68 543 m 68 271 q 20 291 40 271 q 0 339 0 311 q 20 387 0 367 q 68 407 40 407 l 475 407 q 523 387 503 407 q 543 339 543 367 q 523 291 543 311 q 475 271 503 271 l 68 271 z "},">":{"ha":678,"x_min":-3,"x_max":546,"o":"m 43 623 q 10 653 22 629 q 3 705 -2 677 q 27 746 8 731 q 68 755 47 761 l 500 568 q 534 534 522 555 q 543 486 546 513 l 543 460 q 534 413 546 433 q 500 378 522 392 l 68 192 q 27 201 46 186 q 3 242 8 216 q 9 293 -3 269 q 43 324 22 317 l 380 473 l 43 623 z "},"?":{"ha":678,"x_min":4,"x_max":543,"o":"m 319 116 q 329 106 319 116 q 339 68 339 96 q 319 20 339 40 q 271 0 299 0 q 223 20 243 0 q 203 68 203 40 q 223 116 203 96 q 271 136 243 136 q 319 116 299 136 m 407 678 q 367 774 407 734 q 237 814 328 814 q 121 774 161 814 l 120 773 q 72 753 100 753 q 24 773 44 753 q 4 821 4 793 q 24 869 4 848 q 26 869 25 869 l 25 870 q 237 949 104 949 q 463 870 384 949 q 543 678 543 791 q 463 486 543 566 q 339 415 409 432 l 339 339 q 319 291 339 311 q 271 271 299 271 q 223 291 243 271 q 203 339 203 311 l 203 475 q 223 523 203 503 q 271 543 243 543 q 367 582 328 543 q 407 678 407 622 z "},"@":{"ha":678,"x_min":0,"x_max":543,"o":"m 407 407 l 407 543 q 359 523 379 543 q 339 475 339 503 q 359 427 339 447 q 407 407 379 407 m 136 271 q 175 175 136 215 q 305 136 215 136 q 422 176 382 136 q 423 177 422 176 q 471 197 443 197 q 518 177 498 197 q 538 129 538 157 q 519 81 538 101 q 517 80 517 80 l 517 79 q 305 0 438 0 q 79 79 159 0 q 0 271 0 159 l 0 678 q 79 870 0 791 q 271 949 159 949 q 463 870 384 949 q 543 678 543 791 l 543 339 q 523 291 543 311 q 475 271 503 271 l 407 271 q 263 331 323 271 q 203 475 203 391 q 263 618 203 559 q 407 678 323 678 q 367 774 407 734 q 271 814 328 814 q 175 774 215 814 q 136 678 136 734 l 136 271 z "},"A":{"ha":678,"x_min":-18,"x_max":561,"o":"m 140 136 l 120 52 q 89 10 113 25 q 38 1 65 -5 q -3 32 12 8 q -12 83 -18 56 l 176 895 q 207 937 183 922 q 258 947 231 951 l 284 947 q 335 937 311 951 q 366 895 359 922 l 555 83 q 546 32 561 56 q 505 1 531 8 q 453 10 477 -5 q 422 52 429 25 l 403 136 l 140 136 m 171 271 l 372 271 l 271 703 l 171 271 z "},"B":{"ha":678,"x_min":0,"x_max":543,"o":"m 0 882 q 20 929 0 909 q 68 949 40 949 l 271 949 q 463 870 384 949 q 543 678 543 791 q 463 486 543 566 q 451 475 457 480 q 463 463 457 469 q 543 271 543 384 q 463 79 543 159 q 271 0 384 0 l 68 0 q 20 20 40 0 q 0 68 0 40 l 0 882 m 136 814 l 136 543 l 271 543 q 367 582 328 543 q 407 678 407 622 q 367 774 407 734 q 271 814 328 814 l 136 814 m 136 407 l 136 136 l 271 136 q 367 175 328 136 q 407 271 407 215 q 367 367 407 328 q 271 407 328 407 l 136 407 z "},"C":{"ha":678,"x_min":0,"x_max":538,"o":"m 136 271 q 175 175 136 215 q 305 136 215 136 q 422 176 382 136 q 423 177 422 176 q 471 197 443 197 q 518 177 498 197 q 538 129 538 157 q 519 81 538 101 q 517 80 517 80 l 517 79 q 305 0 438 0 q 79 79 159 0 q 0 271 0 159 l 0 678 q 79 870 0 791 q 305 949 159 949 q 517 870 438 949 l 517 869 q 519 869 517 869 q 538 821 538 848 q 518 773 538 793 q 471 753 498 753 q 423 773 443 753 q 422 774 422 773 q 305 814 382 814 q 175 774 215 814 q 136 678 136 734 l 136 271 z "},"D":{"ha":678,"x_min":0,"x_max":543,"o":"m 271 949 q 463 870 384 949 q 543 678 543 791 l 543 271 q 463 79 543 159 q 271 0 384 0 l 68 0 q 20 20 40 0 q 0 68 0 40 l 0 882 q 20 929 0 909 q 68 949 40 949 l 271 949 m 407 678 q 367 774 407 734 q 271 814 328 814 l 136 814 l 136 136 l 271 136 q 367 175 328 136 q 407 271 407 215 l 407 678 z "},"E":{"ha":678,"x_min":0,"x_max":543,"o":"m 475 949 q 523 929 503 949 q 543 882 543 909 q 523 834 543 854 q 475 814 503 814 l 136 814 l 136 543 l 407 543 q 455 523 435 543 q 475 475 475 503 q 455 427 475 447 q 407 407 435 407 l 136 407 l 136 136 l 475 136 q 523 116 503 136 q 543 68 543 96 q 523 20 543 40 q 475 0 503 0 l 68 0 q 20 20 40 0 q 0 68 0 40 l 0 882 q 20 929 0 909 q 68 949 40 949 l 475 949 z "},"F":{"ha":678,"x_min":0,"x_max":543,"o":"m 475 949 q 523 929 503 949 q 543 882 543 909 q 523 834 543 854 q 475 814 503 814 l 136 814 l 136 543 l 407 543 q 455 523 435 543 q 475 475 475 503 q 455 427 475 447 q 407 407 435 407 l 136 407 l 136 68 q 116 20 136 40 q 68 0 96 0 q 20 20 40 0 q 0 68 0 40 l 0 882 q 20 929 0 909 q 68 949 40 949 l 475 949 z "},"G":{"ha":678,"x_min":0,"x_max":543,"o":"m 339 407 q 291 427 311 407 q 271 475 271 447 q 291 523 271 503 q 339 543 311 543 l 475 543 q 523 523 503 543 q 543 475 543 503 l 543 271 q 463 79 543 159 q 271 0 384 0 q 79 79 159 0 q 0 271 0 159 l 0 678 q 79 870 0 791 q 305 949 159 949 q 517 870 438 949 l 517 869 q 519 869 517 869 q 538 821 538 848 q 518 773 538 793 q 471 753 498 753 q 423 773 443 753 q 422 774 422 773 q 305 814 382 814 q 175 774 215 814 q 136 678 136 734 l 136 271 q 175 175 136 215 q 271 136 215 136 q 367 175 328 136 q 407 271 407 215 l 407 407 l 339 407 z "},"H":{"ha":678,"x_min":0,"x_max":543,"o":"m 136 68 q 116 20 136 40 q 68 0 96 0 q 20 20 40 0 q 0 68 0 40 l 0 882 q 20 929 0 909 q 68 949 40 949 q 116 929 96 949 q 136 882 136 909 l 136 543 l 407 543 l 407 882 q 427 929 407 909 q 475 949 447 949 q 523 929 503 949 q 543 882 543 909 l 543 68 q 523 20 543 40 q 475 0 503 0 q 427 20 447 0 q 407 68 407 40 l 407 407 l 136 407 l 136 68 z "},"I":{"ha":678,"x_min":0,"x_max":543,"o":"m 475 136 q 523 116 503 136 q 543 68 543 96 q 523 20 543 40 q 475 0 503 0 l 68 0 q 20 20 40 0 q 0 68 0 40 q 20 116 0 96 q 68 136 40 136 l 203 136 l 203 814 l 68 814 q 20 834 40 814 q 0 882 0 854 q 20 929 0 909 q 68 949 40 949 l 475 949 q 523 929 503 949 q 543 882 543 909 q 523 834 543 854 q 475 814 503 814 l 339 814 l 339 136 l 475 136 z "},"J":{"ha":678,"x_min":4,"x_max":543,"o":"m 407 882 q 427 929 407 909 q 475 949 447 949 q 523 929 503 949 q 543 882 543 909 l 543 271 q 463 79 543 159 q 237 0 384 0 q 25 79 104 0 l 26 80 q 24 81 25 80 q 4 129 4 101 q 24 177 4 157 q 72 197 44 197 q 120 177 100 197 q 121 176 120 176 q 237 136 161 136 q 367 175 328 136 q 407 271 407 215 l 407 882 z "},"K":{"ha":678,"x_min":0,"x_max":543,"o":"m 229 543 l 414 911 q 427 930 418 921 q 475 949 447 949 q 523 929 503 949 q 543 882 543 909 q 529 841 543 859 l 530 840 l 347 475 l 530 110 l 529 109 q 543 68 543 91 q 523 20 543 40 q 475 0 503 0 q 427 20 447 0 q 414 38 418 28 l 229 407 l 136 407 l 136 68 q 116 20 136 40 q 68 0 96 0 q 20 20 40 0 q 0 68 0 40 l 0 882 q 20 929 0 909 q 68 949 40 949 q 116 929 96 949 q 136 882 136 909 l 136 543 l 229 543 z "},"L":{"ha":678,"x_min":0,"x_max":543,"o":"m 475 136 q 523 116 503 136 q 543 68 543 96 q 523 20 543 40 q 475 0 503 0 l 68 0 q 20 20 40 0 q 0 68 0 40 l 0 882 q 20 929 0 909 q 68 949 40 949 q 116 929 96 949 q 136 882 136 909 l 136 136 l 475 136 z "},"M":{"ha":678,"x_min":0,"x_max":543,"o":"m 136 68 q 116 20 136 40 q 68 0 96 0 q 20 20 40 0 q 0 68 0 40 l 0 882 q 20 929 0 909 q 68 949 40 949 q 116 930 96 949 q 129 911 124 921 l 271 627 l 414 911 q 427 930 418 921 q 475 949 447 949 q 523 929 503 949 q 543 882 543 909 l 543 68 q 523 20 543 40 q 475 0 503 0 q 427 20 447 0 q 407 68 407 40 l 407 594 l 347 475 l 271 323 l 195 475 l 136 594 l 136 68 z "},"N":{"ha":678,"x_min":0,"x_max":543,"o":"m 136 68 q 116 20 136 40 q 68 0 96 0 q 20 20 40 0 q 0 68 0 40 l 0 882 q 20 929 0 909 q 68 949 40 949 q 116 930 96 949 q 129 911 124 921 l 407 355 l 407 882 q 427 929 407 909 q 475 949 447 949 q 523 929 503 949 q 543 882 543 909 l 543 68 q 523 20 543 40 q 475 0 503 0 q 427 20 447 0 q 414 38 418 28 l 136 594 l 136 68 z "},"O":{"ha":678,"x_min":0,"x_max":543,"o":"m 0 678 q 79 870 0 791 q 271 949 159 949 q 463 870 384 949 q 543 678 543 791 l 543 271 q 463 79 543 159 q 271 0 384 0 q 79 79 159 0 q 0 271 0 159 l 0 678 m 407 678 q 367 774 407 734 q 271 814 328 814 q 175 774 215 814 q 136 678 136 734 l 136 271 q 175 175 136 215 q 271 136 215 136 q 367 175 328 136 q 407 271 407 215 l 407 678 z "},"P":{"ha":678,"x_min":0,"x_max":543,"o":"m 136 814 l 136 543 l 271 543 q 367 582 328 543 q 407 678 407 622 q 367 774 407 734 q 271 814 328 814 l 136 814 m 136 68 q 116 20 136 40 q 68 0 96 0 q 20 20 40 0 q 0 68 0 40 l 0 882 q 20 929 0 909 q 68 949 40 949 l 271 949 q 463 870 384 949 q 543 678 543 791 q 463 486 543 566 q 271 407 384 407 l 136 407 l 136 68 z "},"Q":{"ha":678,"x_min":0,"x_max":548,"o":"m 0 678 q 79 870 0 791 q 271 949 159 949 q 463 870 384 949 q 543 678 543 791 l 543 271 q 506 134 543 195 l 515 124 l 515 123 q 539 87 533 110 q 534 36 548 61 q 494 3 521 11 q 443 8 468 -5 q 425 21 433 14 l 410 37 q 271 0 349 0 q 79 79 159 0 q 0 271 0 159 l 0 678 m 407 678 q 367 774 407 734 q 271 814 328 814 q 175 774 215 814 q 136 678 136 734 l 136 271 q 175 175 136 215 q 271 136 215 136 q 311 141 292 136 l 265 189 l 265 190 q 241 225 247 203 q 245 277 232 252 q 286 310 259 302 q 337 304 312 318 q 355 292 347 299 l 404 240 q 407 271 407 255 l 407 678 z "},"R":{"ha":678,"x_min":0,"x_max":543,"o":"m 136 814 l 136 543 l 271 543 q 367 582 328 543 q 407 678 407 622 q 367 774 407 734 q 271 814 328 814 l 136 814 m 136 68 q 116 20 136 40 q 68 0 96 0 q 20 20 40 0 q 0 68 0 40 l 0 882 q 20 929 0 909 q 68 949 40 949 l 271 949 q 463 870 384 949 q 543 678 543 791 q 463 486 543 566 q 372 425 422 445 l 530 110 l 529 109 q 543 68 543 91 q 523 20 543 40 q 475 0 503 0 q 427 20 447 0 q 414 38 418 28 l 229 407 l 136 407 l 136 68 z "},"S":{"ha":678,"x_min":0,"x_max":543,"o":"m 543 271 q 463 79 543 159 q 237 0 384 0 q 25 79 104 0 l 26 80 q 24 81 25 80 q 4 129 4 101 q 24 177 4 157 q 72 197 44 197 q 120 177 100 197 q 121 176 120 176 q 237 136 161 136 q 367 175 328 136 q 407 271 407 215 q 367 367 407 328 q 271 407 328 407 q 79 486 159 407 q 0 678 0 566 q 79 870 0 791 q 305 949 159 949 q 517 870 438 949 l 517 869 q 519 869 517 869 q 538 821 538 848 q 518 773 538 793 q 471 753 498 753 q 423 773 443 753 q 422 774 422 773 q 305 814 382 814 q 175 774 215 814 q 136 678 136 734 q 175 582 136 622 q 271 543 215 543 q 463 463 384 543 q 543 271 543 384 z "},"T":{"ha":678,"x_min":0,"x_max":543,"o":"m 475 949 q 523 929 503 949 q 543 882 543 909 q 523 834 543 854 q 475 814 503 814 l 339 814 l 339 68 q 319 20 339 40 q 271 0 299 0 q 223 20 243 0 q 203 68 203 40 l 203 814 l 68 814 q 20 834 40 814 q 0 882 0 854 q 20 929 0 909 q 68 949 40 949 l 475 949 z "},"U":{"ha":678,"x_min":0,"x_max":543,"o":"m 407 882 q 427 929 407 909 q 475 949 447 949 q 523 929 503 949 q 543 882 543 909 l 543 271 q 463 79 543 159 q 271 0 384 0 q 79 79 159 0 q 0 271 0 159 l 0 882 q 20 929 0 909 q 68 949 40 949 q 116 929 96 949 q 136 882 136 909 l 136 271 q 175 175 136 215 q 271 136 215 136 q 367 175 328 136 q 407 271 407 215 l 407 882 z "},"V":{"ha":678,"x_min":-18,"x_max":561,"o":"m 422 896 q 453 938 429 923 q 505 947 477 953 q 546 916 531 940 q 555 865 561 892 l 366 54 q 335 12 359 26 q 284 1 311 -3 l 258 1 q 207 12 231 -3 q 176 54 183 26 l -12 865 q -3 916 -18 892 q 38 947 12 940 q 89 938 65 953 q 120 896 113 923 l 271 245 l 422 896 z "},"W":{"ha":678,"x_min":0,"x_max":543,"o":"m 0 882 q 20 929 0 909 q 68 949 40 949 q 116 929 96 949 q 136 882 136 909 l 136 170 q 145 145 136 155 q 170 136 155 136 q 194 145 184 136 q 203 170 203 155 l 203 678 q 223 726 203 706 q 271 746 243 746 q 319 726 299 746 q 339 678 339 706 l 339 170 q 349 145 339 155 q 373 136 359 136 q 397 145 387 136 q 407 170 407 155 l 407 882 q 427 929 407 909 q 475 949 447 949 q 523 929 503 949 q 543 882 543 909 l 543 170 q 493 50 543 99 q 373 0 444 0 q 271 33 315 0 q 170 0 227 0 q 50 50 99 0 q 0 170 0 99 l 0 882 z "},"X":{"ha":678,"x_min":0,"x_max":543,"o":"m 195 475 l 13 840 l 14 841 q 0 882 0 859 q 20 929 0 909 q 68 949 40 949 q 116 930 96 949 q 129 911 124 921 l 271 627 l 414 911 q 427 930 418 921 q 475 949 447 949 q 523 929 503 949 q 543 882 543 909 q 529 841 543 859 l 530 840 l 347 475 l 530 110 l 529 109 q 543 68 543 91 q 523 20 543 40 q 475 0 503 0 q 427 20 447 0 q 414 38 418 28 l 271 323 l 129 38 q 116 20 124 28 q 68 0 96 0 q 20 20 40 0 q 0 68 0 40 q 14 109 0 91 l 13 110 l 195 475 z "},"Y":{"ha":678,"x_min":0,"x_max":543,"o":"m 203 458 l 13 840 l 14 841 q 0 882 0 859 q 20 929 0 909 q 68 949 40 949 q 116 930 96 949 q 129 911 124 921 l 271 627 l 414 911 q 427 930 418 921 q 475 949 447 949 q 523 929 503 949 q 543 882 543 909 q 529 841 543 859 l 530 840 l 339 458 l 339 68 q 319 20 339 40 q 271 0 299 0 q 223 20 243 0 q 203 68 203 40 l 203 458 z "},"Z":{"ha":678,"x_min":0,"x_max":543,"o":"m 475 136 q 523 116 503 136 q 543 68 543 96 q 523 20 543 40 q 475 0 503 0 l 68 0 q 20 20 40 0 q 0 68 0 40 q 14 109 0 91 l 13 110 l 365 814 l 68 814 q 20 834 40 814 q 0 882 0 854 q 20 929 0 909 q 68 949 40 949 l 475 949 q 523 929 503 949 q 543 882 543 909 q 529 841 543 859 l 530 840 l 178 136 l 475 136 z "},"[":{"ha":678,"x_min":68,"x_max":407,"o":"m 339 1085 q 387 1065 367 1085 q 407 1017 407 1045 q 387 969 407 989 q 339 949 367 949 l 203 949 l 203 0 l 339 0 q 387 -20 367 0 q 407 -68 407 -40 q 387 -116 407 -96 q 339 -136 367 -136 l 136 -136 q 88 -116 108 -136 q 68 -68 68 -96 l 68 1017 q 88 1065 68 1045 q 136 1085 108 1085 l 339 1085 z "},"\\":{"ha":678,"x_min":0,"x_max":543,"o":"m 14 841 q 0 882 0 859 q 20 929 0 909 q 68 949 40 949 q 116 930 96 949 q 129 911 124 921 l 530 110 l 529 109 q 543 68 543 91 q 523 20 543 40 q 475 0 503 0 q 427 20 447 0 q 414 38 418 28 l 13 840 l 14 841 z "},"]":{"ha":678,"x_min":68,"x_max":407,"o":"m 339 1085 q 387 1065 367 1085 q 407 1017 407 1045 l 407 -68 q 387 -116 407 -96 q 339 -136 367 -136 l 136 -136 q 88 -116 108 -136 q 68 -68 68 -96 q 88 -20 68 -40 q 136 0 108 0 l 271 0 l 271 949 l 136 949 q 88 969 108 949 q 68 1017 68 989 q 88 1065 68 1045 q 136 1085 108 1085 l 339 1085 z "},"^":{"ha":678,"x_min":49,"x_max":494,"o":"m 273 766 l 176 610 q 132 582 160 587 q 81 593 104 577 q 54 637 59 609 q 64 687 49 665 l 214 920 q 258 949 230 943 q 273 949 265 950 q 288 949 280 950 q 332 920 315 943 l 478 687 q 489 637 494 665 q 461 593 484 609 q 410 582 438 577 q 366 610 382 587 l 273 766 z "},"_":{"ha":678,"x_min":0,"x_max":543,"o":"m 68 0 q 20 20 40 0 q 0 68 0 40 q 20 116 0 96 q 68 136 40 136 l 475 136 q 523 116 503 136 q 543 68 543 96 q 523 20 543 40 q 475 0 503 0 l 68 0 z "},"`":{"ha":678,"x_min":161,"x_max":381,"o":"m 177 831 q 166 882 161 854 q 194 926 172 909 q 245 936 217 941 q 289 908 273 931 l 366 796 q 376 746 381 774 q 349 702 371 718 q 298 691 326 686 q 254 720 270 696 l 177 831 z "},"a":{"ha":678,"x_min":0,"x_max":543,"o":"m 136 271 q 175 175 136 215 q 271 136 215 136 q 367 175 328 136 q 407 271 407 215 l 407 407 q 367 503 407 463 q 271 543 328 543 q 175 503 215 543 q 136 407 136 463 l 136 271 m 413 39 q 271 0 351 0 q 79 79 159 0 q 0 271 0 159 l 0 407 q 79 599 0 519 q 271 678 159 678 q 413 639 351 678 q 427 659 418 649 q 475 678 447 678 q 523 658 503 678 q 543 610 543 638 l 543 68 q 523 20 543 40 q 475 0 503 0 q 427 20 447 0 q 413 39 418 29 z "},"b":{"ha":678,"x_min":0,"x_max":543,"o":"m 136 407 l 136 271 q 175 175 136 215 q 271 136 215 136 q 367 175 328 136 q 407 271 407 215 l 407 407 q 367 503 407 463 q 271 543 328 543 q 175 503 215 543 q 136 407 136 463 m 0 882 q 20 929 0 909 q 68 949 40 949 q 116 929 96 949 q 136 882 136 909 l 136 643 q 271 678 196 678 q 463 599 384 678 q 543 407 543 519 l 543 271 q 463 79 543 159 q 271 0 384 0 q 130 39 192 0 q 116 20 125 29 q 68 0 96 0 q 20 20 40 0 q 0 68 0 40 l 0 882 z "},"c":{"ha":678,"x_min":0,"x_max":538,"o":"m 136 271 q 175 175 136 215 q 305 136 215 136 q 422 176 382 136 q 423 177 422 176 q 471 197 443 197 q 518 177 498 197 q 538 129 538 157 q 519 81 538 101 q 517 80 517 80 l 517 79 q 305 0 438 0 q 79 79 159 0 q 0 271 0 159 l 0 407 q 79 599 0 519 q 305 678 159 678 q 517 599 438 678 l 517 598 q 519 597 517 598 q 538 549 538 577 q 518 502 538 522 q 471 481 498 481 q 423 502 443 481 q 422 503 422 502 q 305 543 382 543 q 175 503 215 543 q 136 407 136 463 l 136 271 z "},"d":{"ha":678,"x_min":0,"x_max":543,"o":"m 0 407 q 79 599 0 519 q 271 678 159 678 q 407 643 347 678 l 407 882 q 427 929 407 909 q 475 949 447 949 q 523 929 503 949 q 543 882 543 909 l 543 68 q 523 20 543 40 q 475 0 503 0 q 427 20 447 0 q 413 39 418 29 q 271 0 351 0 q 79 79 159 0 q 0 271 0 159 l 0 407 m 407 407 q 367 503 407 463 q 271 543 328 543 q 175 503 215 543 q 136 407 136 463 l 136 271 q 175 175 136 215 q 271 136 215 136 q 367 175 328 136 q 407 271 407 215 l 407 407 z "},"e":{"ha":678,"x_min":0,"x_max":543,"o":"m 0 407 q 79 599 0 519 q 271 678 159 678 q 463 599 384 678 q 543 407 543 519 l 543 339 q 523 291 543 311 q 475 271 503 271 l 136 271 q 175 175 136 215 q 271 136 215 136 q 368 176 328 136 q 369 177 368 176 q 416 197 389 197 q 464 177 444 197 q 484 129 484 157 q 465 81 484 101 q 463 80 463 80 l 463 79 q 271 0 384 0 q 79 79 159 0 q 0 271 0 159 l 0 407 m 407 407 q 367 503 407 463 q 271 543 328 543 q 175 503 215 543 q 136 407 136 463 l 407 407 z "},"f":{"ha":678,"x_min":0,"x_max":543,"o":"m 407 949 l 475 949 q 523 929 503 949 q 543 882 543 909 q 523 834 543 854 q 475 814 503 814 l 407 814 q 311 774 351 814 q 271 678 271 734 l 475 678 q 523 658 503 678 q 543 610 543 638 q 523 563 543 583 q 475 543 503 543 l 271 543 l 271 68 q 251 20 271 40 q 203 0 231 0 q 156 20 176 0 q 136 68 136 40 l 136 543 l 68 543 q 20 563 40 543 q 0 610 0 583 q 20 658 0 638 q 68 678 40 678 l 136 678 q 215 870 136 791 q 407 949 294 949 z "},"g":{"ha":678,"x_min":0,"x_max":543,"o":"m 136 271 q 175 175 136 215 q 271 136 215 136 q 367 175 328 136 q 407 271 407 215 l 407 407 q 367 503 407 463 q 271 543 328 543 q 175 503 215 543 q 136 407 136 463 l 136 271 m 407 35 q 271 0 347 0 q 79 79 159 0 q 0 271 0 159 l 0 407 q 79 599 0 519 q 271 678 159 678 q 413 639 351 678 q 427 659 418 649 q 475 678 447 678 q 523 658 503 678 q 543 610 543 638 l 543 0 q 463 -192 543 -113 q 237 -271 384 -271 q 25 -192 104 -271 l 26 -191 q 24 -190 25 -191 q 4 -142 4 -170 q 24 -95 4 -115 q 72 -75 44 -75 q 120 -94 100 -75 q 121 -96 120 -95 q 237 -136 161 -136 q 367 -96 328 -136 q 407 0 407 -56 l 407 35 z "},"h":{"ha":678,"x_min":0,"x_max":543,"o":"m 136 68 q 116 20 136 40 q 68 0 96 0 q 20 20 40 0 q 0 68 0 40 l 0 882 q 20 929 0 909 q 68 949 40 949 q 116 929 96 949 q 136 882 136 909 l 136 643 q 271 678 196 678 q 463 599 384 678 q 543 407 543 519 l 543 68 q 523 20 543 40 q 475 0 503 0 q 427 20 447 0 q 407 68 407 40 l 407 407 q 367 503 407 463 q 271 543 328 543 q 175 503 215 543 q 136 407 136 463 l 136 68 z "},"i":{"ha":678,"x_min":0,"x_max":543,"o":"m 475 136 q 523 116 503 136 q 543 68 543 96 q 523 20 543 40 q 475 0 503 0 l 68 0 q 20 20 40 0 q 0 68 0 40 q 20 116 0 96 q 68 136 40 136 l 203 136 l 203 543 l 68 543 q 20 563 40 543 q 0 610 0 583 q 20 658 0 638 q 68 678 40 678 l 271 678 q 319 658 299 678 q 339 610 339 638 l 339 136 l 475 136 m 319 929 q 329 919 319 929 q 339 882 339 909 q 319 834 339 854 q 271 814 299 814 q 223 834 243 814 q 203 882 203 854 q 223 929 203 909 q 271 949 243 949 q 319 929 299 949 z "},"j":{"ha":678,"x_min":4,"x_max":543,"o":"m 475 678 q 523 658 503 678 q 543 610 543 638 l 543 0 q 463 -192 543 -113 q 237 -271 384 -271 q 25 -192 104 -271 l 26 -191 q 24 -190 25 -191 q 4 -142 4 -170 q 24 -95 4 -115 q 72 -75 44 -75 q 120 -94 100 -75 q 121 -96 120 -95 q 237 -136 161 -136 q 367 -96 328 -136 q 407 0 407 -56 l 407 543 l 271 543 q 223 563 243 543 q 203 610 203 583 q 223 658 203 638 q 271 678 243 678 l 475 678 m 523 929 q 533 919 523 929 q 543 882 543 909 q 523 834 543 854 q 475 814 503 814 q 427 834 447 814 q 407 882 407 854 q 427 929 407 909 q 475 949 447 949 q 523 929 503 949 z "},"k":{"ha":678,"x_min":0,"x_max":543,"o":"m 233 407 l 416 654 q 433 670 423 663 q 483 682 456 686 q 527 654 511 677 q 538 603 543 631 q 517 566 534 581 l 518 564 l 354 342 l 518 119 l 517 117 q 538 80 534 102 q 527 29 543 52 q 483 1 511 6 q 433 13 456 -3 q 416 28 423 20 l 237 271 l 136 271 l 136 68 q 116 20 136 40 q 68 0 96 0 q 20 20 40 0 q 0 68 0 40 l 0 882 q 20 929 0 909 q 68 949 40 949 q 116 929 96 949 q 136 882 136 909 l 136 407 l 233 407 z "},"l":{"ha":678,"x_min":0,"x_max":543,"o":"m 475 136 q 523 116 503 136 q 543 68 543 96 q 523 20 543 40 q 475 0 503 0 l 68 0 q 20 20 40 0 q 0 68 0 40 q 20 116 0 96 q 68 136 40 136 l 203 136 l 203 814 l 68 814 q 20 834 40 814 q 0 882 0 854 q 20 929 0 909 q 68 949 40 949 l 271 949 q 319 929 299 949 q 339 882 339 909 l 339 136 l 475 136 z "},"m":{"ha":678,"x_min":0,"x_max":543,"o":"m 543 68 q 523 20 543 40 q 475 0 503 0 q 427 20 447 0 q 407 68 407 40 l 407 509 q 397 533 407 523 q 373 543 387 543 q 349 533 359 543 q 339 509 339 523 l 339 68 q 319 20 339 40 q 271 0 299 0 q 223 20 243 0 q 203 68 203 40 l 203 509 q 194 533 203 523 q 170 543 184 543 q 145 533 155 543 q 136 509 136 523 l 136 68 q 116 20 136 40 q 68 0 96 0 q 20 20 40 0 q 0 68 0 40 l 0 610 q 20 658 0 638 q 68 678 40 678 q 106 667 89 678 q 170 678 135 678 q 271 645 227 678 q 373 678 315 678 q 493 629 444 678 q 543 509 543 579 l 543 68 z "},"n":{"ha":678,"x_min":0,"x_max":543,"o":"m 136 68 q 116 20 136 40 q 68 0 96 0 q 20 20 40 0 q 0 68 0 40 l 0 610 q 20 658 0 638 q 68 678 40 678 q 116 659 96 678 q 130 639 125 649 q 271 678 192 678 q 463 599 384 678 q 543 407 543 519 l 543 68 q 523 20 543 40 q 475 0 503 0 q 427 20 447 0 q 407 68 407 40 l 407 407 q 367 503 407 463 q 271 543 328 543 q 175 503 215 543 q 136 407 136 463 l 136 68 z "},"o":{"ha":678,"x_min":0,"x_max":543,"o":"m 0 407 q 79 599 0 519 q 271 678 159 678 q 463 599 384 678 q 543 407 543 519 l 543 271 q 463 79 543 159 q 271 0 384 0 q 79 79 159 0 q 0 271 0 159 l 0 407 m 407 407 q 367 503 407 463 q 271 543 328 543 q 175 503 215 543 q 136 407 136 463 l 136 271 q 175 175 136 215 q 271 136 215 136 q 367 175 328 136 q 407 271 407 215 l 407 407 z "},"p":{"ha":678,"x_min":0,"x_max":543,"o":"m 543 271 q 463 79 543 159 q 271 0 384 0 q 136 35 196 0 l 136 -203 q 116 -251 136 -231 q 68 -271 96 -271 q 20 -251 40 -271 q 0 -203 0 -231 l 0 610 q 20 658 0 638 q 68 678 40 678 q 116 659 96 678 q 130 639 125 649 q 271 678 192 678 q 463 599 384 678 q 543 407 543 519 l 543 271 m 136 271 q 175 175 136 215 q 271 136 215 136 q 367 175 328 136 q 407 271 407 215 l 407 407 q 367 503 407 463 q 271 543 328 543 q 175 503 215 543 q 136 407 136 463 l 136 271 z "},"q":{"ha":678,"x_min":0,"x_max":543,"o":"m 136 271 q 175 175 136 215 q 271 136 215 136 q 367 175 328 136 q 407 271 407 215 l 407 407 q 367 503 407 463 q 271 543 328 543 q 175 503 215 543 q 136 407 136 463 l 136 271 m 407 35 q 271 0 347 0 q 79 79 159 0 q 0 271 0 159 l 0 407 q 79 599 0 519 q 271 678 159 678 q 413 639 351 678 q 427 659 418 649 q 475 678 447 678 q 523 658 503 678 q 543 610 543 638 l 543 -203 q 523 -251 543 -231 q 475 -271 503 -271 q 427 -251 447 -271 q 407 -203 407 -231 l 407 35 z "},"r":{"ha":678,"x_min":0,"x_max":545,"o":"m 136 68 q 116 20 136 40 q 68 0 96 0 q 20 20 40 0 q 0 68 0 40 l 0 610 q 20 658 0 638 q 68 678 40 678 q 116 659 96 678 q 130 637 125 649 q 305 678 201 678 q 524 599 445 678 l 524 598 q 526 597 524 598 q 545 549 545 577 q 525 502 545 522 q 477 481 505 481 q 430 502 450 481 q 429 503 429 502 q 305 543 389 543 q 175 503 215 543 q 136 407 136 463 l 136 68 z "},"s":{"ha":678,"x_min":0,"x_max":543,"o":"m 543 203 q 463 62 543 125 q 237 0 384 0 q 25 79 104 0 l 26 80 q 24 81 25 80 q 4 129 4 101 q 24 177 4 157 q 72 197 44 197 q 120 177 100 197 q 121 176 120 176 q 237 136 161 136 q 367 158 328 136 q 407 203 407 181 q 377 249 407 226 q 243 271 348 271 q 69 334 138 271 q 0 475 0 396 q 79 616 0 553 q 305 678 159 678 q 517 599 438 678 l 517 598 q 519 597 517 598 q 538 549 538 577 q 518 502 538 522 q 471 481 498 481 q 423 502 443 481 q 422 503 422 502 q 305 543 382 543 q 175 520 215 543 q 136 475 136 497 q 165 430 136 452 q 299 407 195 407 q 473 345 404 407 q 543 203 543 282 z "},"t":{"ha":678,"x_min":0,"x_max":543,"o":"m 407 136 l 475 136 q 523 116 503 136 q 543 68 543 96 q 523 20 543 40 q 475 0 503 0 l 407 0 q 215 79 294 0 q 136 271 136 159 l 136 543 l 68 543 q 20 563 40 543 q 0 610 0 583 q 20 658 0 638 q 68 678 40 678 l 136 678 l 136 882 q 156 929 136 909 q 203 949 176 949 q 251 929 231 949 q 271 882 271 909 l 271 678 l 475 678 q 523 658 503 678 q 543 610 543 638 q 523 563 543 583 q 475 543 503 543 l 271 543 l 271 271 q 311 175 271 215 q 407 136 351 136 z "},"u":{"ha":678,"x_min":0,"x_max":543,"o":"m 407 610 q 427 658 407 638 q 475 678 447 678 q 523 658 503 678 q 543 610 543 638 l 543 68 q 523 20 543 40 q 475 0 503 0 q 427 20 447 0 q 413 39 418 29 q 271 0 351 0 q 79 79 159 0 q 0 271 0 159 l 0 610 q 20 658 0 638 q 68 678 40 678 q 116 658 96 678 q 136 610 136 638 l 136 271 q 175 175 136 215 q 271 136 215 136 q 367 175 328 136 q 407 271 407 215 l 407 610 z "},"v":{"ha":678,"x_min":-16,"x_max":559,"o":"m 420 624 q 451 666 427 651 q 503 675 475 681 q 544 644 529 668 q 553 593 559 620 l 366 54 q 332 12 353 26 q 284 1 311 -3 l 258 1 q 211 12 231 -3 q 176 54 190 26 l -10 593 q -1 645 -16 621 q 40 675 14 669 q 91 667 67 682 q 122 625 115 652 l 271 204 l 420 624 z "},"w":{"ha":678,"x_min":0,"x_max":543,"o":"m 0 610 q 20 658 0 638 q 68 678 40 678 q 116 658 96 678 q 136 610 136 638 l 136 170 q 145 145 136 155 q 170 136 155 136 q 194 145 184 136 q 203 170 203 155 l 203 610 q 223 658 203 638 q 271 678 243 678 q 319 658 299 678 q 339 610 339 638 l 339 170 q 349 145 339 155 q 373 136 359 136 q 397 145 387 136 q 407 170 407 155 l 407 610 q 427 658 407 638 q 475 678 447 678 q 523 658 503 678 q 543 610 543 638 l 543 170 q 493 50 543 99 q 373 0 444 0 q 271 33 315 0 q 170 0 227 0 q 50 50 99 0 q 0 170 0 99 l 0 610 z "},"x":{"ha":678,"x_min":-5,"x_max":543,"o":"m 184 342 l 20 564 l 21 566 q 0 603 4 581 q 12 654 -5 631 q 56 682 28 677 q 106 670 83 686 q 122 654 115 663 l 269 456 l 416 654 q 433 670 423 663 q 483 682 456 686 q 527 654 511 677 q 538 603 543 631 q 517 566 534 581 l 518 564 l 354 342 l 518 119 l 517 117 q 538 80 534 102 q 527 29 543 52 q 483 1 511 6 q 433 13 456 -3 q 416 28 423 20 l 269 227 l 122 28 q 106 13 115 20 q 56 1 83 -3 q 12 29 28 6 q 0 80 -5 52 q 21 117 4 102 l 20 119 l 184 342 z "},"y":{"ha":678,"x_min":0,"x_max":543,"o":"m 407 610 q 427 658 407 638 q 475 678 447 678 q 523 658 503 678 q 543 610 543 638 l 543 0 q 463 -192 543 -113 q 237 -271 384 -271 q 25 -192 104 -271 l 26 -191 q 24 -190 25 -191 q 4 -142 4 -170 q 24 -95 4 -115 q 72 -75 44 -75 q 120 -94 100 -75 q 121 -96 120 -95 q 237 -136 161 -136 q 367 -96 328 -136 q 407 0 407 -56 l 407 35 q 271 0 347 0 q 79 79 159 0 q 0 271 0 159 l 0 610 q 20 658 0 638 q 68 678 40 678 q 116 658 96 678 q 136 610 136 638 l 136 271 q 175 175 136 215 q 271 136 215 136 q 367 175 328 136 q 407 271 407 215 l 407 610 z "},"z":{"ha":678,"x_min":-5,"x_max":543,"o":"m 475 136 q 523 116 503 136 q 543 68 543 96 q 523 20 543 40 q 475 0 503 0 l 68 0 q 56 1 62 0 q 12 29 28 6 q 0 80 -5 52 q 21 117 4 102 l 20 119 l 334 543 l 68 543 q 20 563 40 543 q 0 610 0 583 q 20 658 0 638 q 68 678 40 678 l 448 678 q 483 682 465 685 q 527 654 511 677 q 538 603 543 631 q 517 566 534 581 l 518 564 l 201 136 l 475 136 z "},"{":{"ha":678,"x_min":0,"x_max":543,"o":"m 475 1085 q 523 1065 503 1085 q 543 1017 543 1045 q 523 969 543 989 q 475 949 503 949 q 379 910 418 949 q 339 814 339 870 l 339 678 q 260 486 339 566 q 248 475 254 480 q 260 463 254 469 q 339 271 339 384 l 339 136 q 379 40 339 79 q 475 0 418 0 q 523 -20 503 0 q 543 -68 543 -40 q 523 -116 543 -96 q 475 -136 503 -136 q 283 -56 362 -136 q 203 136 203 23 l 203 271 q 164 367 203 328 q 68 407 124 407 q 20 427 40 407 q 0 475 0 447 q 20 523 0 503 q 68 543 40 543 q 164 582 124 543 q 203 678 203 622 l 203 814 q 283 1006 203 926 q 475 1085 362 1085 z "},"|":{"ha":678,"x_min":203,"x_max":339,"o":"m 203 1017 q 223 1065 203 1045 q 271 1085 243 1085 q 319 1065 299 1085 q 339 1017 339 1045 l 339 -68 q 319 -116 339 -96 q 271 -136 299 -136 q 223 -116 243 -136 q 203 -68 203 -96 l 203 1017 z "},"}":{"ha":678,"x_min":0,"x_max":543,"o":"m 68 949 q 20 969 40 949 q 0 1017 0 989 q 20 1065 0 1045 q 68 1085 40 1085 q 260 1006 180 1085 q 339 814 339 926 l 339 678 q 379 582 339 622 q 475 543 418 543 q 523 523 503 543 q 543 475 543 503 q 523 427 543 447 q 475 407 503 407 q 379 367 418 407 q 339 271 339 328 l 339 136 q 260 -56 339 23 q 68 -136 180 -136 q 20 -116 40 -136 q 0 -68 0 -96 q 20 -20 0 -40 q 68 0 40 0 q 164 40 124 0 q 203 136 203 79 l 203 271 q 283 463 203 384 q 295 475 289 469 q 283 486 289 480 q 203 678 203 566 l 203 814 q 164 910 203 870 q 68 949 124 949 z "},"~":{"ha":678,"x_min":0,"x_max":543,"o":"m 68 407 q 20 427 40 407 q 0 475 0 447 q 20 523 0 503 q 101 563 40 543 q 264 536 163 583 q 400 518 354 494 q 475 543 447 543 q 523 523 503 543 q 543 475 543 503 q 523 427 543 447 q 438 383 503 407 q 271 407 373 359 q 135 431 175 455 q 68 407 96 407 z "},"¡":{"ha":678,"x_min":203,"x_max":339,"o":"m 203 355 q 223 403 203 383 q 271 423 243 423 q 319 403 299 423 q 339 355 339 383 l 339 -187 q 319 -235 339 -215 q 271 -255 299 -255 q 223 -235 243 -255 q 203 -187 203 -215 l 203 355 m 319 674 q 329 664 319 674 q 339 627 339 654 q 319 579 339 599 q 271 559 299 559 q 223 579 243 559 q 203 627 203 599 q 223 674 203 654 q 271 694 243 694 q 319 674 299 694 z "},"¢":{"ha":678,"x_min":0,"x_max":538,"o":"m 339 138 q 422 176 391 145 q 423 177 422 176 q 471 197 443 197 q 518 177 498 197 q 538 129 538 157 q 519 81 538 101 q 517 80 517 80 l 517 79 q 339 1 448 10 l 339 -68 q 319 -116 339 -96 q 271 -136 299 -136 q 223 -116 243 -136 q 203 -68 203 -96 l 203 12 q 79 79 128 31 q 0 271 0 159 l 0 407 q 79 599 0 519 q 203 667 128 648 l 203 746 q 223 794 203 774 q 271 814 243 814 q 319 794 299 814 q 339 746 339 774 l 339 677 q 517 599 448 668 l 517 598 q 519 597 517 598 q 538 549 538 577 q 518 502 538 522 q 471 481 498 481 q 423 502 443 481 q 422 503 422 502 q 339 541 391 533 l 339 138 m 136 271 q 176 176 136 215 q 203 155 187 163 l 203 523 q 176 503 187 515 q 136 407 136 463 l 136 271 z "},"£":{"ha":678,"x_min":0,"x_max":543,"o":"m 68 136 l 68 305 q 20 325 40 305 q 0 373 0 345 q 20 421 0 401 q 68 441 40 441 l 68 509 q 20 529 40 509 q 0 576 0 549 q 20 624 0 604 q 68 644 40 644 l 68 678 q 147 870 68 791 q 339 949 227 949 q 517 870 438 949 l 517 869 q 519 869 517 869 q 538 821 538 848 q 518 773 538 793 q 471 753 498 753 q 423 773 443 753 q 422 774 422 773 q 339 814 382 814 q 243 774 283 814 q 203 678 203 734 l 203 644 l 441 644 q 489 624 469 644 q 509 576 509 604 q 489 529 509 549 q 441 509 469 509 l 203 509 l 203 441 l 441 441 q 489 421 469 441 q 509 373 509 401 q 489 325 509 345 q 441 305 469 305 l 203 305 l 203 136 l 475 136 q 523 116 503 136 q 543 68 543 96 q 523 20 543 40 q 475 0 503 0 l 68 0 q 20 20 40 0 q 0 68 0 40 q 20 116 0 96 q 68 136 40 136 z "},"¥":{"ha":678,"x_min":0,"x_max":543,"o":"m 195 475 l 13 840 l 14 841 q 0 882 0 859 q 20 929 0 909 q 68 949 40 949 q 116 930 96 949 q 129 911 124 921 l 271 627 l 414 911 q 427 930 418 921 q 475 949 447 949 q 523 929 503 949 q 543 882 543 909 q 529 841 543 859 l 530 840 l 347 475 l 475 475 q 523 455 503 475 q 543 407 543 435 q 523 359 543 379 q 475 339 503 339 l 339 339 l 339 271 l 475 271 q 523 251 503 271 q 543 203 543 231 q 523 156 543 176 q 475 136 503 136 l 339 136 l 339 68 q 319 20 339 40 q 271 0 299 0 q 223 20 243 0 q 203 68 203 40 l 203 136 l 68 136 q 20 156 40 136 q 0 203 0 176 q 20 251 0 231 q 68 271 40 271 l 203 271 l 203 339 l 68 339 q 20 359 40 339 q 0 407 0 379 q 20 455 0 435 q 68 475 40 475 l 195 475 z "},"¦":{"ha":678,"x_min":203,"x_max":339,"o":"m 203 1017 q 223 1065 203 1045 q 271 1085 243 1085 q 319 1065 299 1085 q 339 1017 339 1045 l 339 -68 q 319 -116 339 -96 q 271 -136 299 -136 q 223 -116 243 -136 q 203 -68 203 -96 l 203 1017 z "},"§":{"ha":678,"x_min":0,"x_max":543,"o":"m 543 203 q 463 62 543 125 q 237 0 384 0 q 25 79 104 0 l 26 80 q 24 81 25 80 q 4 129 4 101 q 24 177 4 157 q 72 197 44 197 q 120 177 100 197 q 121 176 120 176 q 237 136 161 136 q 367 158 328 136 q 407 203 407 181 q 377 249 407 226 q 243 271 348 271 q 69 334 138 271 q 0 475 0 396 q 68 606 0 547 q 0 746 0 668 q 79 887 0 825 q 305 949 159 949 q 517 870 438 949 l 517 869 q 519 869 517 869 q 538 821 538 848 q 518 773 538 793 q 471 753 498 753 q 423 773 443 753 q 422 774 422 773 q 305 814 382 814 q 175 791 215 814 q 136 746 136 768 q 165 701 136 724 q 299 678 195 678 q 473 616 404 678 q 543 475 543 553 q 475 343 543 402 q 543 203 543 281 m 136 475 q 165 430 136 452 q 281 407 192 409 q 368 430 331 409 q 407 475 407 452 q 378 520 407 497 q 261 543 351 541 q 176 520 212 541 q 136 475 136 497 z "},"¨":{"ha":678,"x_min":68,"x_max":475,"o":"m 136 949 q 183 929 163 949 q 203 882 203 909 q 183 834 203 854 q 136 814 163 814 q 88 834 108 814 q 68 882 68 854 q 88 929 68 909 q 136 949 108 949 m 407 949 q 455 929 435 949 q 475 882 475 909 q 455 834 475 854 q 407 814 435 814 q 359 834 379 814 q 339 882 339 854 q 359 929 339 909 q 407 949 379 949 z "},"©":{"ha":678,"x_min":0,"x_max":543,"o":"m 136 271 q 175 175 136 215 q 271 136 215 136 q 368 176 328 136 q 406 256 401 210 q 285 203 343 203 q 136 272 193 203 l 136 271 m 407 398 l 407 551 q 389 549 399 549 q 342 570 361 549 q 340 570 341 570 q 285 610 328 610 q 223 571 242 610 q 203 475 203 531 q 223 379 203 418 q 285 339 242 339 q 340 379 328 339 q 342 380 341 380 q 389 400 361 400 q 407 398 399 400 m 0 678 q 79 870 0 791 q 271 949 159 949 q 463 870 384 949 q 543 678 543 791 l 543 271 q 463 79 543 159 q 271 0 384 0 q 79 79 159 0 q 0 271 0 159 l 0 678 m 406 694 q 368 774 401 740 q 271 814 328 814 q 175 774 215 814 q 136 678 136 734 l 136 677 q 285 746 193 746 q 406 694 343 746 z "},"ª":{"ha":678,"x_min":0,"x_max":543,"o":"m 136 543 q 175 447 136 486 q 271 407 215 407 q 367 447 328 407 q 407 543 407 486 l 407 678 q 367 774 407 734 q 271 814 328 814 q 175 774 215 814 q 136 678 136 734 l 136 543 m 413 311 q 271 271 351 271 q 79 351 159 271 q 0 543 0 430 l 0 678 q 79 870 0 791 q 271 949 159 949 q 413 910 351 949 q 427 930 418 920 q 475 949 447 949 q 523 929 503 949 q 543 882 543 909 l 543 339 q 523 291 543 311 q 475 271 503 271 q 427 292 447 271 q 413 311 418 300 z "},"¯":{"ha":678,"x_min":0,"x_max":543,"o":"m 68 814 q 20 834 40 814 q 0 882 0 854 q 20 929 0 909 q 68 949 40 949 l 475 949 q 523 929 503 949 q 543 882 543 909 q 523 834 543 854 q 475 814 503 814 l 68 814 z "},"°":{"ha":678,"x_min":102,"x_max":441,"o":"m 271 949 q 391 900 342 949 q 441 780 441 850 q 391 660 441 709 q 271 610 342 610 q 151 660 201 610 q 102 780 102 709 q 151 900 102 850 q 271 949 201 949 m 271 848 q 223 828 243 848 q 203 780 203 808 q 223 732 203 752 q 271 712 243 712 q 319 732 299 712 q 339 780 339 752 q 319 828 339 808 q 271 848 299 848 z "},"±":{"ha":678,"x_min":0,"x_max":543,"o":"m 203 305 l 203 441 l 68 441 q 20 461 40 441 q 0 509 0 481 q 20 556 0 536 q 68 576 40 576 l 203 576 l 203 712 q 223 760 203 740 q 271 780 243 780 q 319 760 299 780 q 339 712 339 740 l 339 576 l 475 576 q 523 556 503 576 q 543 509 543 536 q 523 461 543 481 q 475 441 503 441 l 339 441 l 339 305 l 475 305 q 523 285 503 305 q 543 237 543 265 q 523 190 543 210 q 475 170 503 170 l 68 170 q 20 190 40 170 q 0 237 0 210 q 20 285 0 265 q 68 305 40 305 l 203 305 z "},"²":{"ha":678,"x_min":0,"x_max":543,"o":"m 136 475 l 136 407 l 305 407 q 422 447 382 407 q 423 448 422 448 q 471 468 443 468 q 518 448 498 468 q 538 400 538 428 q 519 353 538 372 q 517 351 517 351 l 517 351 q 305 271 438 271 l 0 271 l 0 475 q 69 616 0 553 q 243 678 138 678 q 377 701 348 678 q 407 746 407 724 q 367 791 407 768 q 237 814 328 814 q 121 774 161 814 l 120 773 q 72 753 100 753 q 24 773 44 753 q 4 821 4 793 q 24 869 4 848 q 26 869 25 869 l 25 870 q 237 949 104 949 q 463 887 384 949 q 543 746 543 825 q 473 605 543 667 q 299 543 404 543 q 165 520 195 543 q 136 475 136 497 z "},"³":{"ha":678,"x_min":0,"x_max":543,"o":"m 136 610 q 137 644 136 610 q 243 678 138 678 q 377 701 348 678 q 407 746 407 724 q 367 791 407 768 q 237 814 328 814 q 121 774 161 814 l 120 773 q 72 753 100 753 q 24 773 44 753 q 4 821 4 793 q 24 869 4 848 q 26 869 25 869 l 25 870 q 237 949 104 949 q 463 887 384 949 q 543 746 543 825 q 479 610 543 671 l 475 610 q 538 475 538 550 q 459 334 538 396 q 233 271 380 271 q 21 351 100 271 l 22 351 q 20 352 21 351 q 0 400 0 372 q 20 448 0 428 q 68 468 40 468 q 116 448 96 468 l 117 447 q 233 407 157 407 q 363 430 323 407 q 403 475 403 452 q 373 520 403 497 q 239 543 344 543 q 136 610 134 543 z "},"´":{"ha":678,"x_min":161,"x_max":381,"o":"m 289 720 q 245 691 273 696 q 194 702 217 686 q 166 746 172 718 q 177 796 161 774 l 254 908 q 298 936 270 931 q 349 926 326 941 q 376 882 371 909 q 366 831 381 854 l 289 720 z "},"µ":{"ha":678,"x_min":0,"x_max":543,"o":"m 0 610 q 20 658 0 638 q 68 678 40 678 q 116 658 96 678 q 136 610 136 638 l 136 271 q 175 175 136 215 q 271 136 215 136 q 367 175 328 136 q 407 271 407 215 l 407 610 q 427 658 407 638 q 475 678 447 678 q 523 658 503 678 q 543 610 543 638 l 543 68 q 523 20 543 40 q 475 0 503 0 q 427 20 447 0 q 413 39 418 29 q 271 0 351 0 q 136 35 196 0 l 136 -203 q 116 -251 136 -231 q 68 -271 96 -271 q 20 -251 40 -271 q 0 -203 0 -231 l 0 610 z "},"¶":{"ha":678,"x_min":0,"x_max":543,"o":"m 475 949 q 523 929 503 949 q 543 882 543 909 l 543 68 q 523 20 543 40 q 475 0 503 0 q 427 20 447 0 q 407 68 407 40 l 407 814 l 339 814 l 339 68 q 319 20 339 40 q 271 0 299 0 q 223 20 243 0 q 203 68 203 40 l 203 415 q 79 486 134 432 q 0 678 0 566 q 79 870 0 791 q 271 949 159 949 l 475 949 z "},"·":{"ha":678,"x_min":170,"x_max":373,"o":"m 271 576 q 343 547 313 576 q 373 475 373 517 q 343 403 373 433 q 271 373 313 373 q 199 403 229 373 q 170 475 170 433 q 199 547 170 517 q 271 576 229 576 z "},"¸":{"ha":678,"x_min":190,"x_max":418,"o":"m 393 113 l 326 -22 q 406 -90 393 -22 q 338 -192 418 -158 q 214 -158 258 -226 q 258 -90 326 -90 q 190 -22 190 -90 l 258 113 l 393 113 z "},"¹":{"ha":678,"x_min":0,"x_max":543,"o":"m 475 407 q 523 387 503 407 q 543 339 543 367 q 523 291 543 311 q 475 271 503 271 l 68 271 q 20 291 40 271 q 0 339 0 311 q 20 387 0 367 q 68 407 40 407 l 203 407 l 203 814 l 68 814 q 20 834 40 814 q 0 882 0 854 q 20 929 0 909 q 68 949 40 949 l 271 949 q 319 929 299 949 q 339 882 339 909 l 339 407 l 475 407 z "},"º":{"ha":678,"x_min":0,"x_max":543,"o":"m 0 678 q 79 870 0 791 q 271 949 159 949 q 463 870 384 949 q 543 678 543 791 l 543 543 q 463 351 543 430 q 271 271 384 271 q 79 351 159 271 q 0 543 0 430 l 0 678 m 407 678 q 367 774 407 734 q 271 814 328 814 q 175 774 215 814 q 136 678 136 734 l 136 543 q 175 447 136 486 q 271 407 215 407 q 367 447 328 407 q 407 543 407 486 l 407 678 z "},"¿":{"ha":678,"x_min":4,"x_max":543,"o":"m 228 579 q 218 589 228 579 q 208 627 208 599 q 228 674 208 654 q 275 694 248 694 q 323 674 303 694 q 343 627 343 654 q 323 579 343 599 q 275 559 303 559 q 228 579 248 559 m 140 16 q 179 -80 140 -40 q 309 -119 219 -119 q 426 -79 386 -119 l 427 -79 q 475 -58 447 -58 q 523 -78 503 -58 q 543 -126 543 -98 q 522 -174 543 -154 q 521 -175 522 -175 l 522 -176 q 309 -255 442 -255 q 83 -176 163 -255 q 4 16 4 -96 q 83 208 4 129 q 208 279 138 262 l 208 355 q 228 403 208 383 q 275 423 248 423 q 323 403 303 423 q 343 355 343 383 l 343 220 q 323 172 343 192 q 275 152 303 152 q 179 112 219 152 q 140 16 140 73 z "},"À":{"ha":678,"x_min":-18,"x_max":561,"o":"m 140 136 l 120 52 q 89 10 113 25 q 38 1 65 -5 q -3 32 12 8 q -12 83 -18 56 l 176 895 q 207 937 183 922 q 258 947 231 951 l 284 947 q 335 937 311 951 q 366 895 359 922 l 555 83 q 546 32 561 56 q 505 1 531 8 q 453 10 477 -5 q 422 52 429 25 l 403 136 l 140 136 m 171 271 l 372 271 l 271 703 l 171 271 m 142 1109 q 131 1160 126 1132 q 159 1204 136 1187 q 210 1214 182 1219 q 254 1186 237 1209 l 330 1074 q 341 1024 346 1052 q 313 980 336 996 q 262 969 290 964 q 218 998 235 975 l 142 1109 z "},"Á":{"ha":678,"x_min":-18,"x_max":561,"o":"m 140 136 l 120 52 q 89 10 113 25 q 38 1 65 -5 q -3 32 12 8 q -12 83 -18 56 l 176 895 q 207 937 183 922 q 258 947 231 951 l 284 947 q 335 937 311 951 q 366 895 359 922 l 555 83 q 546 32 561 56 q 505 1 531 8 q 453 10 477 -5 q 422 52 429 25 l 403 136 l 140 136 m 171 271 l 372 271 l 271 703 l 171 271 m 324 998 q 280 969 308 975 q 229 980 252 964 q 202 1024 207 996 q 212 1074 197 1052 l 289 1186 q 333 1214 305 1209 q 384 1204 361 1219 q 411 1160 406 1187 q 401 1109 416 1132 l 324 998 z "},"Â":{"ha":678,"x_min":-18,"x_max":561,"o":"m 140 136 l 120 52 q 89 10 113 25 q 38 1 65 -5 q -3 32 12 8 q -12 83 -18 56 l 176 895 q 207 937 183 922 q 258 947 231 951 l 284 947 q 335 937 311 951 q 366 895 359 922 l 555 83 q 546 32 561 56 q 505 1 531 8 q 453 10 477 -5 q 422 52 429 25 l 403 136 l 140 136 m 171 271 l 372 271 l 271 703 l 171 271 m 271 1044 l 248 1010 q 203 982 231 987 q 153 992 176 977 q 125 1036 130 1008 q 136 1086 120 1064 l 212 1198 q 256 1227 229 1221 q 271 1227 264 1228 q 286 1227 279 1228 q 330 1198 314 1221 l 407 1086 q 417 1036 422 1064 q 390 992 412 1008 q 339 982 367 977 q 295 1010 311 987 l 271 1044 z "},"Ã":{"ha":678,"x_min":-18,"x_max":561,"o":"m 140 136 l 120 52 q 89 10 113 25 q 38 1 65 -5 q -3 32 12 8 q -12 83 -18 56 l 176 895 q 207 937 183 922 q 258 947 231 951 l 284 947 q 335 937 311 951 q 366 895 359 922 l 555 83 q 546 32 561 56 q 505 1 531 8 q 453 10 477 -5 q 422 52 429 25 l 403 136 l 140 136 m 171 271 l 372 271 l 271 703 l 171 271 m 136 1072 q 88 1092 108 1072 q 68 1140 68 1112 q 88 1188 68 1168 q 145 1221 108 1208 q 264 1201 183 1235 q 356 1191 334 1173 q 407 1208 379 1208 q 455 1188 435 1208 q 475 1140 475 1168 q 455 1092 475 1112 q 394 1055 435 1072 q 271 1072 353 1038 q 179 1089 195 1107 q 136 1072 163 1072 z "},"Ä":{"ha":678,"x_min":-18,"x_max":561,"o":"m 140 136 l 120 52 q 89 10 113 25 q 38 1 65 -5 q -3 32 12 8 q -12 83 -18 56 l 176 895 q 207 937 183 922 q 258 947 231 951 l 284 947 q 335 937 311 951 q 366 895 359 922 l 555 83 q 546 32 561 56 q 505 1 531 8 q 453 10 477 -5 q 422 52 429 25 l 403 136 l 140 136 m 171 271 l 372 271 l 271 703 l 171 271 m 136 1227 q 183 1207 163 1227 q 203 1160 203 1187 q 183 1112 203 1132 q 136 1092 163 1092 q 88 1112 108 1092 q 68 1160 68 1132 q 88 1207 68 1187 q 136 1227 108 1227 m 407 1227 q 455 1207 435 1227 q 475 1160 475 1187 q 455 1112 475 1132 q 407 1092 435 1092 q 359 1112 379 1092 q 339 1160 339 1132 q 359 1207 339 1187 q 407 1227 379 1227 z "},"Å":{"ha":678,"x_min":-18,"x_max":561,"o":"m 271 1126 q 223 1106 243 1126 q 203 1058 203 1086 q 223 1010 203 1030 q 271 990 243 990 q 319 1010 299 990 q 339 1058 339 1030 q 319 1106 339 1086 q 271 1126 299 1126 m 140 136 l 120 52 q 89 10 113 25 q 38 1 65 -5 q -3 32 12 8 q -12 83 -18 56 l 176 895 q 183 912 179 904 q 151 938 166 923 q 102 1058 102 987 q 151 1178 102 1128 q 271 1227 201 1227 q 391 1178 342 1227 q 441 1058 441 1128 q 391 938 441 987 q 359 912 376 923 q 366 895 363 904 l 555 83 q 546 32 561 56 q 505 1 531 8 q 453 10 477 -5 q 422 52 429 25 l 403 136 l 140 136 m 171 271 l 372 271 l 271 703 l 171 271 z "},"Æ":{"ha":678,"x_min":-18,"x_max":543,"o":"m 271 271 l 271 703 l 171 271 l 271 271 m 475 949 q 523 929 503 949 q 543 882 543 909 q 523 834 543 854 q 475 814 503 814 l 407 814 l 407 543 l 475 543 q 523 523 503 543 q 543 475 543 503 q 523 427 543 447 q 475 407 503 407 l 407 407 l 407 136 l 475 136 q 523 116 503 136 q 543 68 543 96 q 523 20 543 40 q 475 0 503 0 l 339 0 q 291 20 311 0 q 271 68 271 40 l 271 136 l 140 136 l 120 52 q 89 10 113 25 q 38 1 65 -5 q -3 32 12 8 q -12 83 -18 56 l 176 895 q 207 937 183 922 q 258 947 231 951 l 475 949 z "},"Ç":{"ha":678,"x_min":0,"x_max":538,"o":"m 517 80 l 517 79 q 305 0 438 0 q 79 79 159 0 q 0 271 0 159 l 136 271 q 175 175 136 215 q 305 136 215 136 q 422 176 382 136 q 423 177 422 176 q 471 197 443 197 q 518 177 498 197 q 538 129 538 157 q 519 81 538 101 q 517 80 517 80 m 517 869 q 519 869 517 869 q 538 821 538 848 q 518 773 538 793 q 471 753 498 753 q 423 773 443 753 q 422 774 422 773 q 305 814 382 814 q 175 774 215 814 q 136 678 136 734 l 0 678 q 79 870 0 791 q 305 949 159 949 q 517 870 438 949 l 517 869 m 136 678 l 136 271 l 0 271 l 0 678 l 136 678 m 393 113 l 326 -22 q 406 -90 393 -22 q 338 -192 418 -158 q 214 -158 258 -226 q 258 -90 326 -90 q 190 -22 190 -90 l 258 113 l 393 113 z "},"È":{"ha":678,"x_min":0,"x_max":543,"o":"m 475 949 q 523 929 503 949 q 543 882 543 909 q 523 834 543 854 q 475 814 503 814 l 136 814 l 136 543 l 407 543 q 455 523 435 543 q 475 475 475 503 q 455 427 475 447 q 407 407 435 407 l 136 407 l 136 136 l 475 136 q 523 116 503 136 q 543 68 543 96 q 523 20 543 40 q 475 0 503 0 l 68 0 q 20 20 40 0 q 0 68 0 40 l 0 882 q 20 929 0 909 q 68 949 40 949 l 475 949 m 142 1109 q 131 1160 126 1132 q 159 1204 136 1187 q 210 1214 182 1219 q 254 1186 237 1209 l 330 1074 q 341 1024 346 1052 q 313 980 336 996 q 262 969 290 964 q 218 998 235 975 l 142 1109 z "},"É":{"ha":678,"x_min":0,"x_max":543,"o":"m 475 949 q 523 929 503 949 q 543 882 543 909 q 523 834 543 854 q 475 814 503 814 l 136 814 l 136 543 l 407 543 q 455 523 435 543 q 475 475 475 503 q 455 427 475 447 q 407 407 435 407 l 136 407 l 136 136 l 475 136 q 523 116 503 136 q 543 68 543 96 q 523 20 543 40 q 475 0 503 0 l 68 0 q 20 20 40 0 q 0 68 0 40 l 0 882 q 20 929 0 909 q 68 949 40 949 l 475 949 m 324 998 q 280 969 308 975 q 229 980 252 964 q 202 1024 207 996 q 212 1074 197 1052 l 289 1186 q 333 1214 305 1209 q 384 1204 361 1219 q 411 1160 406 1187 q 401 1109 416 1132 l 324 998 z "},"Ê":{"ha":678,"x_min":0,"x_max":543,"o":"m 475 949 q 523 929 503 949 q 543 882 543 909 q 523 834 543 854 q 475 814 503 814 l 136 814 l 136 543 l 407 543 q 455 523 435 543 q 475 475 475 503 q 455 427 475 447 q 407 407 435 407 l 136 407 l 136 136 l 475 136 q 523 116 503 136 q 543 68 543 96 q 523 20 543 40 q 475 0 503 0 l 68 0 q 20 20 40 0 q 0 68 0 40 l 0 882 q 20 929 0 909 q 68 949 40 949 l 475 949 m 271 1044 l 248 1010 q 203 982 231 987 q 153 992 176 977 q 125 1036 130 1008 q 136 1086 120 1064 l 212 1198 q 256 1227 229 1221 q 271 1227 264 1228 q 286 1227 279 1228 q 330 1198 314 1221 l 407 1086 q 417 1036 422 1064 q 390 992 412 1008 q 339 982 367 977 q 295 1010 311 987 l 271 1044 z "},"Ë":{"ha":678,"x_min":0,"x_max":543,"o":"m 475 949 q 523 929 503 949 q 543 882 543 909 q 523 834 543 854 q 475 814 503 814 l 136 814 l 136 543 l 407 543 q 455 523 435 543 q 475 475 475 503 q 455 427 475 447 q 407 407 435 407 l 136 407 l 136 136 l 475 136 q 523 116 503 136 q 543 68 543 96 q 523 20 543 40 q 475 0 503 0 l 68 0 q 20 20 40 0 q 0 68 0 40 l 0 882 q 20 929 0 909 q 68 949 40 949 l 475 949 m 136 1227 q 183 1207 163 1227 q 203 1160 203 1187 q 183 1112 203 1132 q 136 1092 163 1092 q 88 1112 108 1092 q 68 1160 68 1132 q 88 1207 68 1187 q 136 1227 108 1227 m 407 1227 q 455 1207 435 1227 q 475 1160 475 1187 q 455 1112 475 1132 q 407 1092 435 1092 q 359 1112 379 1092 q 339 1160 339 1132 q 359 1207 339 1187 q 407 1227 379 1227 z "},"Ì":{"ha":678,"x_min":0,"x_max":543,"o":"m 475 136 q 523 116 503 136 q 543 68 543 96 q 523 20 543 40 q 475 0 503 0 l 68 0 q 20 20 40 0 q 0 68 0 40 q 20 116 0 96 q 68 136 40 136 l 203 136 l 203 814 l 68 814 q 20 834 40 814 q 0 882 0 854 q 20 929 0 909 q 68 949 40 949 l 475 949 q 523 929 503 949 q 543 882 543 909 q 523 834 543 854 q 475 814 503 814 l 339 814 l 339 136 l 475 136 m 142 1109 q 131 1160 126 1132 q 159 1204 136 1187 q 210 1214 182 1219 q 254 1186 237 1209 l 330 1074 q 341 1024 346 1052 q 313 980 336 996 q 262 969 290 964 q 218 998 235 975 l 142 1109 z "},"Í":{"ha":678,"x_min":0,"x_max":543,"o":"m 475 136 q 523 116 503 136 q 543 68 543 96 q 523 20 543 40 q 475 0 503 0 l 68 0 q 20 20 40 0 q 0 68 0 40 q 20 116 0 96 q 68 136 40 136 l 203 136 l 203 814 l 68 814 q 20 834 40 814 q 0 882 0 854 q 20 929 0 909 q 68 949 40 949 l 475 949 q 523 929 503 949 q 543 882 543 909 q 523 834 543 854 q 475 814 503 814 l 339 814 l 339 136 l 475 136 m 324 998 q 280 969 308 975 q 229 980 252 964 q 202 1024 207 996 q 212 1074 197 1052 l 289 1186 q 333 1214 305 1209 q 384 1204 361 1219 q 411 1160 406 1187 q 401 1109 416 1132 l 324 998 z "},"Î":{"ha":678,"x_min":0,"x_max":543,"o":"m 475 136 q 523 116 503 136 q 543 68 543 96 q 523 20 543 40 q 475 0 503 0 l 68 0 q 20 20 40 0 q 0 68 0 40 q 20 116 0 96 q 68 136 40 136 l 203 136 l 203 814 l 68 814 q 20 834 40 814 q 0 882 0 854 q 20 929 0 909 q 68 949 40 949 l 475 949 q 523 929 503 949 q 543 882 543 909 q 523 834 543 854 q 475 814 503 814 l 339 814 l 339 136 l 475 136 m 271 1044 l 248 1010 q 203 982 231 987 q 153 992 176 977 q 125 1036 130 1008 q 136 1086 120 1064 l 212 1198 q 256 1227 229 1221 q 271 1227 264 1228 q 286 1227 279 1228 q 330 1198 314 1221 l 407 1086 q 417 1036 422 1064 q 390 992 412 1008 q 339 982 367 977 q 295 1010 311 987 l 271 1044 z "},"Ï":{"ha":678,"x_min":0,"x_max":543,"o":"m 475 136 q 523 116 503 136 q 543 68 543 96 q 523 20 543 40 q 475 0 503 0 l 68 0 q 20 20 40 0 q 0 68 0 40 q 20 116 0 96 q 68 136 40 136 l 203 136 l 203 814 l 68 814 q 20 834 40 814 q 0 882 0 854 q 20 929 0 909 q 68 949 40 949 l 475 949 q 523 929 503 949 q 543 882 543 909 q 523 834 543 854 q 475 814 503 814 l 339 814 l 339 136 l 475 136 m 136 1227 q 183 1207 163 1227 q 203 1160 203 1187 q 183 1112 203 1132 q 136 1092 163 1092 q 88 1112 108 1092 q 68 1160 68 1132 q 88 1207 68 1187 q 136 1227 108 1227 m 407 1227 q 455 1207 435 1227 q 475 1160 475 1187 q 455 1112 475 1132 q 407 1092 435 1092 q 359 1112 379 1092 q 339 1160 339 1132 q 359 1207 339 1187 q 407 1227 379 1227 z "},"Ð":{"ha":678,"x_min":0,"x_max":543,"o":"m 271 949 q 463 870 384 949 q 543 678 543 791 l 543 271 q 463 79 543 159 q 271 0 384 0 l 136 0 q 88 20 108 0 q 68 68 68 40 l 68 407 q 20 427 40 407 q 0 475 0 447 q 20 523 0 503 q 68 543 40 543 l 68 882 q 88 929 68 909 q 136 949 108 949 l 271 949 m 407 678 q 367 774 407 734 q 271 814 328 814 l 203 814 l 203 543 l 271 543 q 319 523 299 543 q 339 475 339 503 q 319 427 339 447 q 271 407 299 407 l 203 407 l 203 136 l 271 136 q 367 175 328 136 q 407 271 407 215 l 407 678 z "},"Ñ":{"ha":678,"x_min":0,"x_max":543,"o":"m 136 68 q 116 20 136 40 q 68 0 96 0 q 20 20 40 0 q 0 68 0 40 l 0 882 q 20 929 0 909 q 68 949 40 949 q 116 930 96 949 q 129 911 124 921 l 407 355 l 407 882 q 427 929 407 909 q 475 949 447 949 q 523 929 503 949 q 543 882 543 909 l 543 68 q 523 20 543 40 q 475 0 503 0 q 427 20 447 0 q 414 38 418 28 l 136 594 l 136 68 m 136 1072 q 88 1092 108 1072 q 68 1140 68 1112 q 88 1188 68 1168 q 145 1221 108 1208 q 264 1201 183 1235 q 356 1191 334 1173 q 407 1208 379 1208 q 455 1188 435 1208 q 475 1140 475 1168 q 455 1092 475 1112 q 394 1055 435 1072 q 271 1072 353 1038 q 179 1089 195 1107 q 136 1072 163 1072 z "},"Ò":{"ha":678,"x_min":0,"x_max":543,"o":"m 0 678 q 79 870 0 791 q 271 949 159 949 q 463 870 384 949 q 543 678 543 791 l 543 271 q 463 79 543 159 q 271 0 384 0 q 79 79 159 0 q 0 271 0 159 l 0 678 m 407 678 q 367 774 407 734 q 271 814 328 814 q 175 774 215 814 q 136 678 136 734 l 136 271 q 175 175 136 215 q 271 136 215 136 q 367 175 328 136 q 407 271 407 215 l 407 678 m 142 1109 q 131 1160 126 1132 q 159 1204 136 1187 q 210 1214 182 1219 q 254 1186 237 1209 l 330 1074 q 341 1024 346 1052 q 313 980 336 996 q 262 969 290 964 q 218 998 235 975 l 142 1109 z "},"Ó":{"ha":678,"x_min":0,"x_max":543,"o":"m 0 678 q 79 870 0 791 q 271 949 159 949 q 463 870 384 949 q 543 678 543 791 l 543 271 q 463 79 543 159 q 271 0 384 0 q 79 79 159 0 q 0 271 0 159 l 0 678 m 407 678 q 367 774 407 734 q 271 814 328 814 q 175 774 215 814 q 136 678 136 734 l 136 271 q 175 175 136 215 q 271 136 215 136 q 367 175 328 136 q 407 271 407 215 l 407 678 m 324 998 q 280 969 308 975 q 229 980 252 964 q 202 1024 207 996 q 212 1074 197 1052 l 289 1186 q 333 1214 305 1209 q 384 1204 361 1219 q 411 1160 406 1187 q 401 1109 416 1132 l 324 998 z "},"Ô":{"ha":678,"x_min":0,"x_max":543,"o":"m 0 678 q 79 870 0 791 q 271 949 159 949 q 463 870 384 949 q 543 678 543 791 l 543 271 q 463 79 543 159 q 271 0 384 0 q 79 79 159 0 q 0 271 0 159 l 0 678 m 407 678 q 367 774 407 734 q 271 814 328 814 q 175 774 215 814 q 136 678 136 734 l 136 271 q 175 175 136 215 q 271 136 215 136 q 367 175 328 136 q 407 271 407 215 l 407 678 m 271 1044 l 248 1010 q 203 982 231 987 q 153 992 176 977 q 125 1036 130 1008 q 136 1086 120 1064 l 212 1198 q 256 1227 229 1221 q 271 1227 264 1228 q 286 1227 279 1228 q 330 1198 314 1221 l 407 1086 q 417 1036 422 1064 q 390 992 412 1008 q 339 982 367 977 q 295 1010 311 987 l 271 1044 z "},"Õ":{"ha":678,"x_min":0,"x_max":543,"o":"m 0 678 q 79 870 0 791 q 271 949 159 949 q 463 870 384 949 q 543 678 543 791 l 543 271 q 463 79 543 159 q 271 0 384 0 q 79 79 159 0 q 0 271 0 159 l 0 678 m 407 678 q 367 774 407 734 q 271 814 328 814 q 175 774 215 814 q 136 678 136 734 l 136 271 q 175 175 136 215 q 271 136 215 136 q 367 175 328 136 q 407 271 407 215 l 407 678 m 136 1072 q 88 1092 108 1072 q 68 1140 68 1112 q 88 1188 68 1168 q 145 1221 108 1208 q 264 1201 183 1235 q 356 1191 334 1173 q 407 1208 379 1208 q 455 1188 435 1208 q 475 1140 475 1168 q 455 1092 475 1112 q 394 1055 435 1072 q 271 1072 353 1038 q 179 1089 195 1107 q 136 1072 163 1072 z "},"Ö":{"ha":678,"x_min":0,"x_max":543,"o":"m 0 678 q 79 870 0 791 q 271 949 159 949 q 463 870 384 949 q 543 678 543 791 l 543 271 q 463 79 543 159 q 271 0 384 0 q 79 79 159 0 q 0 271 0 159 l 0 678 m 407 678 q 367 774 407 734 q 271 814 328 814 q 175 774 215 814 q 136 678 136 734 l 136 271 q 175 175 136 215 q 271 136 215 136 q 367 175 328 136 q 407 271 407 215 l 407 678 m 136 1227 q 183 1207 163 1227 q 203 1160 203 1187 q 183 1112 203 1132 q 136 1092 163 1092 q 88 1112 108 1092 q 68 1160 68 1132 q 88 1207 68 1187 q 136 1227 108 1227 m 407 1227 q 455 1207 435 1227 q 475 1160 475 1187 q 455 1112 475 1132 q 407 1092 435 1092 q 359 1112 379 1092 q 339 1160 339 1132 q 359 1207 339 1187 q 407 1227 379 1227 z "},"×":{"ha":678,"x_min":60,"x_max":483,"o":"m 271 379 l 176 283 q 127 263 156 263 q 79 283 99 263 q 60 331 60 302 q 79 379 60 359 l 176 475 l 79 570 q 60 618 60 590 q 79 667 60 647 q 127 686 99 686 q 176 667 156 686 l 271 570 l 367 667 q 415 686 387 686 q 463 667 444 686 q 483 618 483 647 q 463 570 483 590 l 367 475 l 463 379 q 483 331 483 359 q 463 283 483 302 q 415 263 444 263 q 367 283 387 263 l 271 379 z "},"Ø":{"ha":678,"x_min":0,"x_max":543,"o":"m 0 678 q 79 870 0 791 q 271 949 159 949 q 413 910 351 949 l 414 911 q 427 930 418 921 q 475 949 447 949 q 523 929 503 949 q 543 882 543 909 q 529 841 543 859 l 530 840 l 512 805 q 543 678 543 748 l 543 271 q 463 79 543 159 q 271 0 384 0 q 130 39 192 0 l 129 38 q 116 20 124 28 q 68 0 96 0 q 20 20 40 0 q 0 68 0 40 q 14 109 0 91 l 13 110 l 31 144 q 0 271 0 201 l 0 678 m 191 162 q 271 136 226 136 q 367 175 328 136 q 407 271 407 215 l 407 594 l 191 162 m 352 787 q 271 814 317 814 q 175 774 215 814 q 136 678 136 734 l 136 355 l 352 787 z "},"Ù":{"ha":678,"x_min":0,"x_max":543,"o":"m 407 882 q 427 929 407 909 q 475 949 447 949 q 523 929 503 949 q 543 882 543 909 l 543 271 q 463 79 543 159 q 271 0 384 0 q 79 79 159 0 q 0 271 0 159 l 0 882 q 20 929 0 909 q 68 949 40 949 q 116 929 96 949 q 136 882 136 909 l 136 271 q 175 175 136 215 q 271 136 215 136 q 367 175 328 136 q 407 271 407 215 l 407 882 m 142 1109 q 131 1160 126 1132 q 159 1204 136 1187 q 210 1214 182 1219 q 254 1186 237 1209 l 330 1074 q 341 1024 346 1052 q 313 980 336 996 q 262 969 290 964 q 218 998 235 975 l 142 1109 z "},"Ú":{"ha":678,"x_min":0,"x_max":543,"o":"m 407 882 q 427 929 407 909 q 475 949 447 949 q 523 929 503 949 q 543 882 543 909 l 543 271 q 463 79 543 159 q 271 0 384 0 q 79 79 159 0 q 0 271 0 159 l 0 882 q 20 929 0 909 q 68 949 40 949 q 116 929 96 949 q 136 882 136 909 l 136 271 q 175 175 136 215 q 271 136 215 136 q 367 175 328 136 q 407 271 407 215 l 407 882 m 324 998 q 280 969 308 975 q 229 980 252 964 q 202 1024 207 996 q 212 1074 197 1052 l 289 1186 q 333 1214 305 1209 q 384 1204 361 1219 q 411 1160 406 1187 q 401 1109 416 1132 l 324 998 z "},"Û":{"ha":678,"x_min":0,"x_max":543,"o":"m 407 882 q 427 929 407 909 q 475 949 447 949 q 523 929 503 949 q 543 882 543 909 l 543 271 q 463 79 543 159 q 271 0 384 0 q 79 79 159 0 q 0 271 0 159 l 0 882 q 20 929 0 909 q 68 949 40 949 q 116 929 96 949 q 136 882 136 909 l 136 271 q 175 175 136 215 q 271 136 215 136 q 367 175 328 136 q 407 271 407 215 l 407 882 m 271 1044 l 248 1010 q 203 982 231 987 q 153 992 176 977 q 125 1036 130 1008 q 136 1086 120 1064 l 212 1198 q 256 1227 229 1221 q 271 1227 264 1228 q 286 1227 279 1228 q 330 1198 314 1221 l 407 1086 q 417 1036 422 1064 q 390 992 412 1008 q 339 982 367 977 q 295 1010 311 987 l 271 1044 z "},"Ü":{"ha":678,"x_min":0,"x_max":543,"o":"m 407 882 q 427 929 407 909 q 475 949 447 949 q 523 929 503 949 q 543 882 543 909 l 543 271 q 463 79 543 159 q 271 0 384 0 q 79 79 159 0 q 0 271 0 159 l 0 882 q 20 929 0 909 q 68 949 40 949 q 116 929 96 949 q 136 882 136 909 l 136 271 q 175 175 136 215 q 271 136 215 136 q 367 175 328 136 q 407 271 407 215 l 407 882 m 136 1227 q 183 1207 163 1227 q 203 1160 203 1187 q 183 1112 203 1132 q 136 1092 163 1092 q 88 1112 108 1092 q 68 1160 68 1132 q 88 1207 68 1187 q 136 1227 108 1227 m 407 1227 q 455 1207 435 1227 q 475 1160 475 1187 q 455 1112 475 1132 q 407 1092 435 1092 q 359 1112 379 1092 q 339 1160 339 1132 q 359 1207 339 1187 q 407 1227 379 1227 z "},"Ý":{"ha":678,"x_min":0,"x_max":543,"o":"m 203 458 l 13 840 l 14 841 q 0 882 0 859 q 20 929 0 909 q 68 949 40 949 q 116 930 96 949 q 129 911 124 921 l 271 627 l 414 911 q 427 930 418 921 q 475 949 447 949 q 523 929 503 949 q 543 882 543 909 q 529 841 543 859 l 530 840 l 339 458 l 339 68 q 319 20 339 40 q 271 0 299 0 q 223 20 243 0 q 203 68 203 40 l 203 458 m 324 998 q 280 969 308 975 q 229 980 252 964 q 202 1024 207 996 q 212 1074 197 1052 l 289 1186 q 333 1214 305 1209 q 384 1204 361 1219 q 411 1160 406 1187 q 401 1109 416 1132 l 324 998 z "},"Þ":{"ha":678,"x_min":0,"x_max":543,"o":"m 407 407 q 367 503 407 463 q 271 543 328 543 l 136 543 l 136 136 l 271 136 q 367 175 328 136 q 407 271 407 215 l 407 407 m 271 678 q 463 599 384 678 q 543 407 543 519 l 543 271 q 463 79 543 159 q 271 0 384 0 l 136 0 l 136 -203 q 116 -251 136 -231 q 68 -271 96 -271 q 20 -251 40 -271 q 0 -203 0 -231 l 0 882 q 20 929 0 909 q 68 949 40 949 q 116 929 96 949 q 136 882 136 909 l 136 678 l 271 678 z "},"ß":{"ha":678,"x_min":0,"x_max":543,"o":"m 271 0 q 223 20 243 0 q 203 68 203 40 q 223 116 203 96 q 271 136 243 136 q 367 175 328 136 q 407 271 407 215 q 367 367 407 328 q 271 407 328 407 q 223 427 243 407 q 203 475 203 447 q 223 523 203 503 q 271 543 243 543 q 367 582 328 543 q 407 678 407 622 q 367 774 407 734 q 271 814 328 814 q 175 774 215 814 q 136 678 136 734 l 136 0 q 116 -48 136 -28 q 68 -68 96 -68 q 20 -48 40 -68 q 0 0 0 -28 l 0 678 q 79 870 0 791 q 271 949 159 949 q 463 870 384 949 q 543 678 543 791 q 463 486 543 566 q 451 475 457 480 q 463 463 457 469 q 543 271 543 384 q 463 79 543 159 q 271 0 384 0 z "},"à":{"ha":678,"x_min":0,"x_max":543,"o":"m 136 271 q 175 175 136 215 q 271 136 215 136 q 367 175 328 136 q 407 271 407 215 l 407 407 q 367 503 407 463 q 271 543 328 543 q 175 503 215 543 q 136 407 136 463 l 136 271 m 413 39 q 271 0 351 0 q 79 79 159 0 q 0 271 0 159 l 0 407 q 79 599 0 519 q 271 678 159 678 q 413 639 351 678 q 427 659 418 649 q 475 678 447 678 q 523 658 503 678 q 543 610 543 638 l 543 68 q 523 20 543 40 q 475 0 503 0 q 427 20 447 0 q 413 39 418 29 m 142 831 q 131 882 126 854 q 159 926 136 909 q 210 936 182 941 q 254 908 237 931 l 330 796 q 341 746 346 774 q 313 702 336 718 q 262 691 290 686 q 218 720 235 696 l 142 831 z "},"á":{"ha":678,"x_min":0,"x_max":543,"o":"m 136 271 q 175 175 136 215 q 271 136 215 136 q 367 175 328 136 q 407 271 407 215 l 407 407 q 367 503 407 463 q 271 543 328 543 q 175 503 215 543 q 136 407 136 463 l 136 271 m 413 39 q 271 0 351 0 q 79 79 159 0 q 0 271 0 159 l 0 407 q 79 599 0 519 q 271 678 159 678 q 413 639 351 678 q 427 659 418 649 q 475 678 447 678 q 523 658 503 678 q 543 610 543 638 l 543 68 q 523 20 543 40 q 475 0 503 0 q 427 20 447 0 q 413 39 418 29 m 324 720 q 280 691 308 696 q 229 702 252 686 q 202 746 207 718 q 212 796 197 774 l 289 908 q 333 936 305 931 q 384 926 361 941 q 411 882 406 909 q 401 831 416 854 l 324 720 z "},"â":{"ha":678,"x_min":0,"x_max":543,"o":"m 136 271 q 175 175 136 215 q 271 136 215 136 q 367 175 328 136 q 407 271 407 215 l 407 407 q 367 503 407 463 q 271 543 328 543 q 175 503 215 543 q 136 407 136 463 l 136 271 m 413 39 q 271 0 351 0 q 79 79 159 0 q 0 271 0 159 l 0 407 q 79 599 0 519 q 271 678 159 678 q 413 639 351 678 q 427 659 418 649 q 475 678 447 678 q 523 658 503 678 q 543 610 543 638 l 543 68 q 523 20 543 40 q 475 0 503 0 q 427 20 447 0 q 413 39 418 29 m 271 766 l 248 732 q 203 704 231 709 q 153 714 176 699 q 125 758 130 730 q 136 808 120 786 l 212 920 q 256 949 229 943 q 271 949 264 950 q 286 949 279 950 q 330 920 314 943 l 407 808 q 417 758 422 786 q 390 714 412 730 q 339 704 367 699 q 295 732 311 709 l 271 766 z "},"ã":{"ha":678,"x_min":0,"x_max":543,"o":"m 136 271 q 175 175 136 215 q 271 136 215 136 q 367 175 328 136 q 407 271 407 215 l 407 407 q 367 503 407 463 q 271 543 328 543 q 175 503 215 543 q 136 407 136 463 l 136 271 m 413 39 q 271 0 351 0 q 79 79 159 0 q 0 271 0 159 l 0 407 q 79 599 0 519 q 271 678 159 678 q 413 639 351 678 q 427 659 418 649 q 475 678 447 678 q 523 658 503 678 q 543 610 543 638 l 543 68 q 523 20 543 40 q 475 0 503 0 q 427 20 447 0 q 413 39 418 29 m 136 794 q 88 814 108 794 q 68 862 68 834 q 88 910 68 890 q 145 943 108 930 q 264 923 183 957 q 356 912 334 895 q 407 930 379 930 q 455 910 435 930 q 475 862 475 890 q 455 814 475 834 q 394 777 435 794 q 271 794 353 760 q 179 811 195 829 q 136 794 163 794 z "},"ä":{"ha":678,"x_min":0,"x_max":543,"o":"m 136 271 q 175 175 136 215 q 271 136 215 136 q 367 175 328 136 q 407 271 407 215 l 407 407 q 367 503 407 463 q 271 543 328 543 q 175 503 215 543 q 136 407 136 463 l 136 271 m 413 39 q 271 0 351 0 q 79 79 159 0 q 0 271 0 159 l 0 407 q 79 599 0 519 q 271 678 159 678 q 413 639 351 678 q 427 659 418 649 q 475 678 447 678 q 523 658 503 678 q 543 610 543 638 l 543 68 q 523 20 543 40 q 475 0 503 0 q 427 20 447 0 q 413 39 418 29 m 136 949 q 183 929 163 949 q 203 882 203 909 q 183 834 203 854 q 136 814 163 814 q 88 834 108 814 q 68 882 68 854 q 88 929 68 909 q 136 949 108 949 m 407 949 q 455 929 435 949 q 475 882 475 909 q 455 834 475 854 q 407 814 435 814 q 359 834 379 814 q 339 882 339 854 q 359 929 339 909 q 407 949 379 949 z "},"å":{"ha":678,"x_min":0,"x_max":543,"o":"m 271 848 q 223 828 243 848 q 203 780 203 808 q 223 732 203 752 q 271 712 243 712 q 319 732 299 712 q 339 780 339 752 q 319 828 339 808 q 271 848 299 848 m 136 271 q 175 175 136 215 q 271 136 215 136 q 367 175 328 136 q 407 271 407 215 l 407 407 q 367 503 407 463 q 271 543 328 543 q 175 503 215 543 q 136 407 136 463 l 136 271 m 413 39 q 271 0 351 0 q 79 79 159 0 q 0 271 0 159 l 0 407 q 79 599 0 519 q 157 654 115 635 q 151 660 154 657 q 102 780 102 709 q 151 900 102 850 q 271 949 201 949 q 391 900 342 949 q 441 780 441 850 q 391 660 441 709 q 385 654 389 657 q 413 639 399 648 q 427 659 418 649 q 475 678 447 678 q 523 658 503 678 q 543 610 543 638 l 543 68 q 523 20 543 40 q 475 0 503 0 q 427 20 447 0 q 413 39 418 29 z "},"æ":{"ha":678,"x_min":0,"x_max":543,"o":"m 339 525 l 339 407 l 407 407 q 368 503 407 463 q 339 525 354 516 m 203 153 l 203 271 l 136 271 q 176 176 136 215 q 203 153 189 162 m 271 678 q 463 599 384 678 q 543 407 543 519 l 543 339 q 523 291 543 311 q 475 271 503 271 l 339 271 l 339 153 q 368 176 354 162 q 369 177 368 176 q 416 197 389 197 q 464 177 444 197 q 484 129 484 157 q 465 81 484 101 q 463 80 463 80 l 463 79 q 271 0 384 0 q 79 79 159 0 q 0 271 0 159 l 0 339 q 20 387 0 367 q 68 407 40 407 l 203 407 l 203 525 q 175 503 189 516 l 174 502 q 126 481 154 481 q 78 502 98 481 q 58 549 58 522 q 79 597 58 577 q 80 598 79 598 l 79 599 q 271 678 159 678 z "},"ç":{"ha":678,"x_min":0,"x_max":538,"o":"m 0 407 q 79 599 0 519 q 305 678 159 678 q 517 599 438 678 l 517 598 q 519 597 517 598 q 538 549 538 577 q 518 502 538 522 q 471 481 498 481 q 423 502 443 481 q 422 503 422 502 q 305 543 382 543 q 175 503 215 543 q 136 407 136 463 l 136 271 q 175 175 136 215 q 305 136 215 136 q 422 176 382 136 q 423 177 422 176 q 471 197 443 197 q 518 177 498 197 q 538 129 538 157 q 519 81 538 101 q 517 80 517 80 l 517 79 q 337 1 448 10 l 326 -22 q 406 -90 393 -22 q 338 -192 418 -158 q 214 -158 258 -226 q 258 -90 326 -90 q 190 -22 190 -90 l 206 11 q 79 79 130 29 q 0 271 0 159 l 0 407 z "},"è":{"ha":678,"x_min":0,"x_max":543,"o":"m 0 407 q 79 599 0 519 q 271 678 159 678 q 463 599 384 678 q 543 407 543 519 l 543 339 q 523 291 543 311 q 475 271 503 271 l 136 271 q 175 175 136 215 q 271 136 215 136 q 368 176 328 136 q 369 177 368 176 q 416 197 389 197 q 464 177 444 197 q 484 129 484 157 q 465 81 484 101 q 463 80 463 80 l 463 79 q 271 0 384 0 q 79 79 159 0 q 0 271 0 159 l 0 407 m 407 407 q 367 503 407 463 q 271 543 328 543 q 175 503 215 543 q 136 407 136 463 l 407 407 m 142 831 q 131 882 126 854 q 159 926 136 909 q 210 936 182 941 q 254 908 237 931 l 330 796 q 341 746 346 774 q 313 702 336 718 q 262 691 290 686 q 218 720 235 696 l 142 831 z "},"é":{"ha":678,"x_min":0,"x_max":543,"o":"m 0 407 q 79 599 0 519 q 271 678 159 678 q 463 599 384 678 q 543 407 543 519 l 543 339 q 523 291 543 311 q 475 271 503 271 l 136 271 q 175 175 136 215 q 271 136 215 136 q 368 176 328 136 q 369 177 368 176 q 416 197 389 197 q 464 177 444 197 q 484 129 484 157 q 465 81 484 101 q 463 80 463 80 l 463 79 q 271 0 384 0 q 79 79 159 0 q 0 271 0 159 l 0 407 m 407 407 q 367 503 407 463 q 271 543 328 543 q 175 503 215 543 q 136 407 136 463 l 407 407 m 324 720 q 280 691 308 696 q 229 702 252 686 q 202 746 207 718 q 212 796 197 774 l 289 908 q 333 936 305 931 q 384 926 361 941 q 411 882 406 909 q 401 831 416 854 l 324 720 z "},"ê":{"ha":678,"x_min":0,"x_max":543,"o":"m 0 407 q 79 599 0 519 q 271 678 159 678 q 463 599 384 678 q 543 407 543 519 l 543 339 q 523 291 543 311 q 475 271 503 271 l 136 271 q 175 175 136 215 q 271 136 215 136 q 368 176 328 136 q 369 177 368 176 q 416 197 389 197 q 464 177 444 197 q 484 129 484 157 q 465 81 484 101 q 463 80 463 80 l 463 79 q 271 0 384 0 q 79 79 159 0 q 0 271 0 159 l 0 407 m 407 407 q 367 503 407 463 q 271 543 328 543 q 175 503 215 543 q 136 407 136 463 l 407 407 m 271 766 l 248 732 q 203 704 231 709 q 153 714 176 699 q 125 758 130 730 q 136 808 120 786 l 212 920 q 256 949 229 943 q 271 949 264 950 q 286 949 279 950 q 330 920 314 943 l 407 808 q 417 758 422 786 q 390 714 412 730 q 339 704 367 699 q 295 732 311 709 l 271 766 z "},"ë":{"ha":678,"x_min":0,"x_max":543,"o":"m 0 407 q 79 599 0 519 q 271 678 159 678 q 463 599 384 678 q 543 407 543 519 l 543 339 q 523 291 543 311 q 475 271 503 271 l 136 271 q 175 175 136 215 q 271 136 215 136 q 368 176 328 136 q 369 177 368 176 q 416 197 389 197 q 464 177 444 197 q 484 129 484 157 q 465 81 484 101 q 463 80 463 80 l 463 79 q 271 0 384 0 q 79 79 159 0 q 0 271 0 159 l 0 407 m 407 407 q 367 503 407 463 q 271 543 328 543 q 175 503 215 543 q 136 407 136 463 l 407 407 m 136 949 q 183 929 163 949 q 203 882 203 909 q 183 834 203 854 q 136 814 163 814 q 88 834 108 814 q 68 882 68 854 q 88 929 68 909 q 136 949 108 949 m 407 949 q 455 929 435 949 q 475 882 475 909 q 455 834 475 854 q 407 814 435 814 q 359 834 379 814 q 339 882 339 854 q 359 929 339 909 q 407 949 379 949 z "},"ì":{"ha":678,"x_min":0,"x_max":543,"o":"m 475 136 q 523 116 503 136 q 543 68 543 96 q 523 20 543 40 q 475 0 503 0 l 68 0 q 20 20 40 0 q 0 68 0 40 q 20 116 0 96 q 68 136 40 136 l 203 136 l 203 543 l 68 543 q 20 563 40 543 q 0 610 0 583 q 20 658 0 638 q 68 678 40 678 l 271 678 q 319 658 299 678 q 339 610 339 638 l 339 136 l 475 136 m 142 831 q 131 882 126 854 q 159 926 136 909 q 210 936 182 941 q 254 908 237 931 l 330 796 q 341 746 346 774 q 313 702 336 718 q 262 691 290 686 q 218 720 235 696 l 142 831 z "},"í":{"ha":678,"x_min":0,"x_max":543,"o":"m 475 136 q 523 116 503 136 q 543 68 543 96 q 523 20 543 40 q 475 0 503 0 l 68 0 q 20 20 40 0 q 0 68 0 40 q 20 116 0 96 q 68 136 40 136 l 203 136 l 203 543 l 68 543 q 20 563 40 543 q 0 610 0 583 q 20 658 0 638 q 68 678 40 678 l 271 678 q 319 658 299 678 q 339 610 339 638 l 339 136 l 475 136 m 324 720 q 280 691 308 696 q 229 702 252 686 q 202 746 207 718 q 212 796 197 774 l 289 908 q 333 936 305 931 q 384 926 361 941 q 411 882 406 909 q 401 831 416 854 l 324 720 z "},"î":{"ha":678,"x_min":0,"x_max":543,"o":"m 475 136 q 523 116 503 136 q 543 68 543 96 q 523 20 543 40 q 475 0 503 0 l 68 0 q 20 20 40 0 q 0 68 0 40 q 20 116 0 96 q 68 136 40 136 l 203 136 l 203 543 l 68 543 q 20 563 40 543 q 0 610 0 583 q 20 658 0 638 q 68 678 40 678 l 271 678 q 319 658 299 678 q 339 610 339 638 l 339 136 l 475 136 m 271 766 l 248 732 q 203 704 231 709 q 153 714 176 699 q 125 758 130 730 q 136 808 120 786 l 212 920 q 256 949 229 943 q 271 949 264 950 q 286 949 279 950 q 330 920 314 943 l 407 808 q 417 758 422 786 q 390 714 412 730 q 339 704 367 699 q 295 732 311 709 l 271 766 z "},"ï":{"ha":678,"x_min":0,"x_max":543,"o":"m 475 136 q 523 116 503 136 q 543 68 543 96 q 523 20 543 40 q 475 0 503 0 l 68 0 q 20 20 40 0 q 0 68 0 40 q 20 116 0 96 q 68 136 40 136 l 203 136 l 203 543 l 68 543 q 20 563 40 543 q 0 610 0 583 q 20 658 0 638 q 68 678 40 678 l 271 678 q 319 658 299 678 q 339 610 339 638 l 339 136 l 475 136 m 136 949 q 183 929 163 949 q 203 882 203 909 q 183 834 203 854 q 136 814 163 814 q 88 834 108 814 q 68 882 68 854 q 88 929 68 909 q 136 949 108 949 m 407 949 q 455 929 435 949 q 475 882 475 909 q 455 834 475 854 q 407 814 435 814 q 359 834 379 814 q 339 882 339 854 q 359 929 339 909 q 407 949 379 949 z "},"ð":{"ha":678,"x_min":0,"x_max":585,"o":"m 136 271 q 175 175 136 215 q 271 136 215 136 q 367 175 328 136 q 407 271 407 215 l 407 340 q 368 435 407 395 q 271 475 328 475 q 175 435 215 475 q 136 339 136 395 l 136 271 m 543 271 q 463 79 543 159 q 271 0 384 0 q 79 79 159 0 q 0 271 0 159 l 0 339 q 79 531 0 452 q 271 610 159 610 q 407 575 347 610 l 407 678 q 400 722 407 702 l 341 677 q 291 664 319 660 q 246 689 263 667 q 233 739 229 711 q 258 784 236 767 l 291 810 q 237 814 267 814 q 121 774 161 814 l 120 773 q 72 753 100 753 q 24 773 44 753 q 4 821 4 793 q 24 869 4 848 q 26 869 25 869 l 25 870 q 237 949 104 949 q 416 907 345 949 l 473 951 q 523 964 494 968 q 568 939 551 960 q 581 889 585 917 q 555 844 578 861 l 510 808 q 543 678 543 750 l 543 271 z "},"ñ":{"ha":678,"x_min":0,"x_max":543,"o":"m 136 68 q 116 20 136 40 q 68 0 96 0 q 20 20 40 0 q 0 68 0 40 l 0 610 q 20 658 0 638 q 68 678 40 678 q 116 659 96 678 q 130 639 125 649 q 271 678 192 678 q 463 599 384 678 q 543 407 543 519 l 543 68 q 523 20 543 40 q 475 0 503 0 q 427 20 447 0 q 407 68 407 40 l 407 407 q 367 503 407 463 q 271 543 328 543 q 175 503 215 543 q 136 407 136 463 l 136 68 m 136 794 q 88 814 108 794 q 68 862 68 834 q 88 910 68 890 q 145 943 108 930 q 264 923 183 957 q 356 912 334 895 q 407 930 379 930 q 455 910 435 930 q 475 862 475 890 q 455 814 475 834 q 394 777 435 794 q 271 794 353 760 q 179 811 195 829 q 136 794 163 794 z "},"ò":{"ha":678,"x_min":0,"x_max":543,"o":"m 0 407 q 79 599 0 519 q 271 678 159 678 q 463 599 384 678 q 543 407 543 519 l 543 271 q 463 79 543 159 q 271 0 384 0 q 79 79 159 0 q 0 271 0 159 l 0 407 m 407 407 q 367 503 407 463 q 271 543 328 543 q 175 503 215 543 q 136 407 136 463 l 136 271 q 175 175 136 215 q 271 136 215 136 q 367 175 328 136 q 407 271 407 215 l 407 407 m 142 831 q 131 882 126 854 q 159 926 136 909 q 210 936 182 941 q 254 908 237 931 l 330 796 q 341 746 346 774 q 313 702 336 718 q 262 691 290 686 q 218 720 235 696 l 142 831 z "},"ó":{"ha":678,"x_min":0,"x_max":543,"o":"m 0 407 q 79 599 0 519 q 271 678 159 678 q 463 599 384 678 q 543 407 543 519 l 543 271 q 463 79 543 159 q 271 0 384 0 q 79 79 159 0 q 0 271 0 159 l 0 407 m 407 407 q 367 503 407 463 q 271 543 328 543 q 175 503 215 543 q 136 407 136 463 l 136 271 q 175 175 136 215 q 271 136 215 136 q 367 175 328 136 q 407 271 407 215 l 407 407 m 324 720 q 280 691 308 696 q 229 702 252 686 q 202 746 207 718 q 212 796 197 774 l 289 908 q 333 936 305 931 q 384 926 361 941 q 411 882 406 909 q 401 831 416 854 l 324 720 z "},"ô":{"ha":678,"x_min":0,"x_max":543,"o":"m 0 407 q 79 599 0 519 q 271 678 159 678 q 463 599 384 678 q 543 407 543 519 l 543 271 q 463 79 543 159 q 271 0 384 0 q 79 79 159 0 q 0 271 0 159 l 0 407 m 407 407 q 367 503 407 463 q 271 543 328 543 q 175 503 215 543 q 136 407 136 463 l 136 271 q 175 175 136 215 q 271 136 215 136 q 367 175 328 136 q 407 271 407 215 l 407 407 m 271 766 l 248 732 q 203 704 231 709 q 153 714 176 699 q 125 758 130 730 q 136 808 120 786 l 212 920 q 256 949 229 943 q 271 949 264 950 q 286 949 279 950 q 330 920 314 943 l 407 808 q 417 758 422 786 q 390 714 412 730 q 339 704 367 699 q 295 732 311 709 l 271 766 z "},"õ":{"ha":678,"x_min":0,"x_max":543,"o":"m 0 407 q 79 599 0 519 q 271 678 159 678 q 463 599 384 678 q 543 407 543 519 l 543 271 q 463 79 543 159 q 271 0 384 0 q 79 79 159 0 q 0 271 0 159 l 0 407 m 407 407 q 367 503 407 463 q 271 543 328 543 q 175 503 215 543 q 136 407 136 463 l 136 271 q 175 175 136 215 q 271 136 215 136 q 367 175 328 136 q 407 271 407 215 l 407 407 m 136 794 q 88 814 108 794 q 68 862 68 834 q 88 910 68 890 q 145 943 108 930 q 264 923 183 957 q 356 912 334 895 q 407 930 379 930 q 455 910 435 930 q 475 862 475 890 q 455 814 475 834 q 394 777 435 794 q 271 794 353 760 q 179 811 195 829 q 136 794 163 794 z "},"ö":{"ha":678,"x_min":0,"x_max":543,"o":"m 0 407 q 79 599 0 519 q 271 678 159 678 q 463 599 384 678 q 543 407 543 519 l 543 271 q 463 79 543 159 q 271 0 384 0 q 79 79 159 0 q 0 271 0 159 l 0 407 m 407 407 q 367 503 407 463 q 271 543 328 543 q 175 503 215 543 q 136 407 136 463 l 136 271 q 175 175 136 215 q 271 136 215 136 q 367 175 328 136 q 407 271 407 215 l 407 407 m 136 949 q 183 929 163 949 q 203 882 203 909 q 183 834 203 854 q 136 814 163 814 q 88 834 108 814 q 68 882 68 854 q 88 929 68 909 q 136 949 108 949 m 407 949 q 455 929 435 949 q 475 882 475 909 q 455 834 475 854 q 407 814 435 814 q 359 834 379 814 q 339 882 339 854 q 359 929 339 909 q 407 949 379 949 z "},"÷":{"ha":678,"x_min":0,"x_max":543,"o":"m 68 407 q 20 427 40 407 q 0 475 0 447 q 20 523 0 503 q 68 543 40 543 l 475 543 q 523 523 503 543 q 543 475 543 503 q 523 427 543 447 q 475 407 503 407 l 68 407 m 271 746 q 319 726 299 746 q 339 678 339 706 q 319 630 339 650 q 271 610 299 610 q 223 630 243 610 q 203 678 203 650 q 223 726 203 706 q 271 746 243 746 m 271 339 q 319 319 299 339 q 339 271 339 299 q 319 223 339 243 q 271 203 299 203 q 223 223 243 203 q 203 271 203 243 q 223 319 203 299 q 271 339 243 339 z "},"ø":{"ha":678,"x_min":-5,"x_max":543,"o":"m 407 413 l 212 149 q 271 136 239 136 q 367 175 328 136 q 407 271 407 215 l 407 413 m 326 532 q 271 543 300 543 q 175 503 215 543 q 136 407 136 463 l 136 275 l 326 532 m 0 407 q 79 599 0 519 q 271 678 159 678 q 408 642 347 678 l 416 654 q 433 670 423 663 q 483 682 456 686 q 527 654 511 677 q 538 603 543 631 q 517 566 534 581 l 518 564 l 505 546 q 543 407 543 484 l 543 271 q 463 79 543 159 q 271 0 384 0 q 130 39 193 0 l 122 28 q 106 13 115 20 q 56 1 83 -3 q 12 29 28 6 q 0 80 -5 52 q 21 117 4 102 l 20 119 l 34 138 q 0 271 0 197 l 0 407 z "},"ù":{"ha":678,"x_min":0,"x_max":543,"o":"m 407 610 q 427 658 407 638 q 475 678 447 678 q 523 658 503 678 q 543 610 543 638 l 543 68 q 523 20 543 40 q 475 0 503 0 q 427 20 447 0 q 413 39 418 29 q 271 0 351 0 q 79 79 159 0 q 0 271 0 159 l 0 610 q 20 658 0 638 q 68 678 40 678 q 116 658 96 678 q 136 610 136 638 l 136 271 q 175 175 136 215 q 271 136 215 136 q 367 175 328 136 q 407 271 407 215 l 407 610 m 142 831 q 131 882 126 854 q 159 926 136 909 q 210 936 182 941 q 254 908 237 931 l 330 796 q 341 746 346 774 q 313 702 336 718 q 262 691 290 686 q 218 720 235 696 l 142 831 z "},"ú":{"ha":678,"x_min":0,"x_max":543,"o":"m 407 610 q 427 658 407 638 q 475 678 447 678 q 523 658 503 678 q 543 610 543 638 l 543 68 q 523 20 543 40 q 475 0 503 0 q 427 20 447 0 q 413 39 418 29 q 271 0 351 0 q 79 79 159 0 q 0 271 0 159 l 0 610 q 20 658 0 638 q 68 678 40 678 q 116 658 96 678 q 136 610 136 638 l 136 271 q 175 175 136 215 q 271 136 215 136 q 367 175 328 136 q 407 271 407 215 l 407 610 m 324 720 q 280 691 308 696 q 229 702 252 686 q 202 746 207 718 q 212 796 197 774 l 289 908 q 333 936 305 931 q 384 926 361 941 q 411 882 406 909 q 401 831 416 854 l 324 720 z "},"û":{"ha":678,"x_min":0,"x_max":543,"o":"m 407 610 q 427 658 407 638 q 475 678 447 678 q 523 658 503 678 q 543 610 543 638 l 543 68 q 523 20 543 40 q 475 0 503 0 q 427 20 447 0 q 413 39 418 29 q 271 0 351 0 q 79 79 159 0 q 0 271 0 159 l 0 610 q 20 658 0 638 q 68 678 40 678 q 116 658 96 678 q 136 610 136 638 l 136 271 q 175 175 136 215 q 271 136 215 136 q 367 175 328 136 q 407 271 407 215 l 407 610 m 271 766 l 248 732 q 203 704 231 709 q 153 714 176 699 q 125 758 130 730 q 136 808 120 786 l 212 920 q 256 949 229 943 q 271 949 264 950 q 286 949 279 950 q 330 920 314 943 l 407 808 q 417 758 422 786 q 390 714 412 730 q 339 704 367 699 q 295 732 311 709 l 271 766 z "},"ü":{"ha":678,"x_min":0,"x_max":543,"o":"m 407 610 q 427 658 407 638 q 475 678 447 678 q 523 658 503 678 q 543 610 543 638 l 543 68 q 523 20 543 40 q 475 0 503 0 q 427 20 447 0 q 413 39 418 29 q 271 0 351 0 q 79 79 159 0 q 0 271 0 159 l 0 610 q 20 658 0 638 q 68 678 40 678 q 116 658 96 678 q 136 610 136 638 l 136 271 q 175 175 136 215 q 271 136 215 136 q 367 175 328 136 q 407 271 407 215 l 407 610 m 136 949 q 183 929 163 949 q 203 882 203 909 q 183 834 203 854 q 136 814 163 814 q 88 834 108 814 q 68 882 68 854 q 88 929 68 909 q 136 949 108 949 m 407 949 q 455 929 435 949 q 475 882 475 909 q 455 834 475 854 q 407 814 435 814 q 359 834 379 814 q 339 882 339 854 q 359 929 339 909 q 407 949 379 949 z "},"ý":{"ha":678,"x_min":0,"x_max":543,"o":"m 407 610 q 427 658 407 638 q 475 678 447 678 q 523 658 503 678 q 543 610 543 638 l 543 0 q 463 -192 543 -113 q 237 -271 384 -271 q 25 -192 104 -271 l 26 -191 q 24 -190 25 -191 q 4 -142 4 -170 q 24 -95 4 -115 q 72 -75 44 -75 q 120 -94 100 -75 q 121 -96 120 -95 q 237 -136 161 -136 q 367 -96 328 -136 q 407 0 407 -56 l 407 35 q 271 0 347 0 q 79 79 159 0 q 0 271 0 159 l 0 610 q 20 658 0 638 q 68 678 40 678 q 116 658 96 678 q 136 610 136 638 l 136 271 q 175 175 136 215 q 271 136 215 136 q 367 175 328 136 q 407 271 407 215 l 407 610 m 324 720 q 280 691 308 696 q 229 702 252 686 q 202 746 207 718 q 212 796 197 774 l 289 908 q 333 936 305 931 q 384 926 361 941 q 411 882 406 909 q 401 831 416 854 l 324 720 z "},"þ":{"ha":678,"x_min":0,"x_max":543,"o":"m 136 407 l 136 271 q 175 175 136 215 q 271 136 215 136 q 367 175 328 136 q 407 271 407 215 l 407 407 q 367 503 407 463 q 271 543 328 543 q 175 503 215 543 q 136 407 136 463 m 0 882 q 20 929 0 909 q 68 949 40 949 q 116 929 96 949 q 136 882 136 909 l 136 643 q 271 678 196 678 q 463 599 384 678 q 543 407 543 519 l 543 271 q 463 79 543 159 q 271 0 384 0 q 136 35 196 0 l 136 -203 q 116 -251 136 -231 q 68 -271 96 -271 q 20 -251 40 -271 q 0 -203 0 -231 l 0 882 z "},"ÿ":{"ha":678,"x_min":0,"x_max":543,"o":"m 407 610 q 427 658 407 638 q 475 678 447 678 q 523 658 503 678 q 543 610 543 638 l 543 0 q 463 -192 543 -113 q 237 -271 384 -271 q 25 -192 104 -271 l 26 -191 q 24 -190 25 -191 q 4 -142 4 -170 q 24 -95 4 -115 q 72 -75 44 -75 q 120 -94 100 -75 q 121 -96 120 -95 q 237 -136 161 -136 q 367 -96 328 -136 q 407 0 407 -56 l 407 35 q 271 0 347 0 q 79 79 159 0 q 0 271 0 159 l 0 610 q 20 658 0 638 q 68 678 40 678 q 116 658 96 678 q 136 610 136 638 l 136 271 q 175 175 136 215 q 271 136 215 136 q 367 175 328 136 q 407 271 407 215 l 407 610 m 136 949 q 183 929 163 949 q 203 882 203 909 q 183 834 203 854 q 136 814 163 814 q 88 834 108 814 q 68 882 68 854 q 88 929 68 909 q 136 949 108 949 m 407 949 q 455 929 435 949 q 475 882 475 909 q 455 834 475 854 q 407 814 435 814 q 359 834 379 814 q 339 882 339 854 q 359 929 339 909 q 407 949 379 949 z "},"ı":{"ha":678,"x_min":0,"x_max":543,"o":"m 475 136 q 523 116 503 136 q 543 68 543 96 q 523 20 543 40 q 475 0 503 0 l 68 0 q 20 20 40 0 q 0 68 0 40 q 20 116 0 96 q 68 136 40 136 l 203 136 l 203 543 l 68 543 q 20 563 40 543 q 0 610 0 583 q 20 658 0 638 q 68 678 40 678 l 271 678 q 319 658 299 678 q 339 610 339 638 l 339 136 l 475 136 z "},"ˆ":{"ha":678,"x_min":121,"x_max":424,"o":"m 273 766 l 249 732 q 205 704 233 709 q 154 714 177 699 q 126 758 132 730 q 137 808 121 786 l 214 920 q 258 949 230 943 q 273 949 265 950 q 288 949 280 950 q 332 920 315 943 l 408 808 q 419 758 424 786 q 391 714 414 730 q 340 704 368 699 q 296 732 313 709 l 273 766 z "},"ˇ":{"ha":678,"x_min":121,"x_max":424,"o":"m 296 920 q 340 948 313 943 q 391 938 368 954 q 419 894 414 922 q 408 844 424 866 l 332 732 q 288 704 315 709 q 273 703 280 702 q 258 704 265 702 q 214 732 230 709 l 137 844 q 126 894 121 866 q 154 938 132 922 q 205 948 177 954 q 249 920 233 943 l 273 886 l 296 920 z "},"˚":{"ha":678,"x_min":102,"x_max":441,"o":"m 271 949 q 391 900 342 949 q 441 780 441 850 q 391 660 441 709 q 271 610 342 610 q 151 660 201 610 q 102 780 102 709 q 151 900 102 850 q 271 949 201 949 m 271 848 q 223 828 243 848 q 203 780 203 808 q 223 732 203 752 q 271 712 243 712 q 319 732 299 712 q 339 780 339 752 q 319 828 339 808 q 271 848 299 848 z "},"˛":{"ha":678,"x_min":179,"x_max":407,"o":"m 339 113 l 407 -22 q 339 -90 407 -90 q 382 -158 271 -90 q 259 -192 339 -226 q 191 -90 179 -158 q 271 -22 203 -22 l 203 113 l 339 113 z "},"˜":{"ha":678,"x_min":68,"x_max":475,"o":"m 136 794 q 88 814 108 794 q 68 862 68 834 q 88 910 68 890 q 145 943 108 930 q 264 923 183 957 q 356 912 334 895 q 407 930 379 930 q 455 910 435 930 q 475 862 475 890 q 455 814 475 834 q 394 777 435 794 q 271 794 353 760 q 179 811 195 829 q 136 794 163 794 z "},"–":{"ha":678,"x_min":0,"x_max":543,"o":"m 68 407 q 20 427 40 407 q 0 475 0 447 q 20 523 0 503 q 68 543 40 543 l 475 543 q 523 523 503 543 q 543 475 543 503 q 523 427 543 447 q 475 407 503 407 l 68 407 z "},"—":{"ha":678,"x_min":0,"x_max":543,"o":"m 68 407 q 20 427 40 407 q 0 475 0 447 q 20 523 0 503 q 68 543 40 543 l 475 543 q 523 523 503 543 q 543 475 543 503 q 523 427 543 447 q 475 407 503 407 l 68 407 z "},"‘":{"ha":678,"x_min":203,"x_max":339,"o":"m 339 814 l 339 746 q 319 698 339 718 q 271 678 299 678 q 223 698 243 678 q 203 746 203 718 l 203 882 q 223 929 203 909 q 271 949 243 949 q 319 929 299 949 q 339 882 339 909 q 305 814 311 882 l 339 814 z "},"’":{"ha":678,"x_min":203,"x_max":339,"o":"m 203 814 l 203 882 q 223 929 203 909 q 271 949 243 949 q 319 929 299 949 q 339 882 339 909 l 339 746 q 319 698 339 718 q 271 678 299 678 q 223 698 243 678 q 203 746 203 718 q 237 814 232 746 l 203 814 z "},"‚":{"ha":678,"x_min":203,"x_max":339,"o":"m 203 0 l 203 68 q 223 116 203 96 q 271 136 243 136 q 319 116 299 136 q 339 68 339 96 l 339 -68 q 319 -116 339 -96 q 271 -136 299 -136 q 223 -116 243 -136 q 203 -68 203 -96 q 237 0 232 -68 l 203 0 z "},"“":{"ha":678,"x_min":115,"x_max":427,"o":"m 251 814 l 251 746 q 231 698 251 718 q 183 678 211 678 q 135 698 155 678 q 115 746 115 718 l 115 882 q 135 929 115 909 q 183 949 155 949 q 231 929 211 949 q 251 882 251 909 q 217 814 222 882 l 251 814 m 427 814 l 427 746 q 407 698 427 718 q 359 678 387 678 q 312 698 332 678 q 292 746 292 718 l 292 882 q 312 929 292 909 q 359 949 332 949 q 407 929 387 949 q 427 882 427 909 q 393 814 399 882 l 427 814 z "},"”":{"ha":678,"x_min":115,"x_max":427,"o":"m 292 814 l 292 882 q 312 929 292 909 q 359 949 332 949 q 407 929 387 949 q 427 882 427 909 l 427 746 q 407 698 427 718 q 359 678 387 678 q 312 698 332 678 q 292 746 292 718 q 326 814 320 746 l 292 814 m 115 814 l 115 882 q 135 929 115 909 q 183 949 155 949 q 231 929 211 949 q 251 882 251 909 l 251 746 q 231 698 251 718 q 183 678 211 678 q 135 698 155 678 q 115 746 115 718 q 149 814 144 746 l 115 814 z "},"„":{"ha":678,"x_min":115,"x_max":427,"o":"m 292 0 l 292 68 q 312 116 292 96 q 359 136 332 136 q 407 116 387 136 q 427 68 427 96 l 427 -68 q 407 -116 427 -96 q 359 -136 387 -136 q 312 -116 332 -136 q 292 -68 292 -96 q 326 0 320 -68 l 292 0 m 115 0 l 115 68 q 135 116 115 96 q 183 136 155 136 q 231 116 211 136 q 251 68 251 96 l 251 -68 q 231 -116 251 -96 q 183 -136 211 -136 q 135 -116 155 -136 q 115 -68 115 -96 q 149 0 144 -68 l 115 0 z "},"•":{"ha":678,"x_min":136,"x_max":407,"o":"m 271 610 q 367 571 328 610 q 407 475 407 531 q 367 379 407 418 q 271 339 328 339 q 175 379 215 339 q 136 475 136 418 q 175 571 136 531 q 271 610 215 610 z "},"…":{"ha":678,"x_min":0,"x_max":543,"o":"m 68 136 q 116 116 96 136 q 136 68 136 96 q 116 20 136 40 q 68 0 96 0 q 20 20 40 0 q 0 68 0 40 q 20 116 0 96 q 68 136 40 136 m 271 136 q 319 116 299 136 q 339 68 339 96 q 319 20 339 40 q 271 0 299 0 q 223 20 243 0 q 203 68 203 40 q 223 116 203 96 q 271 136 243 136 m 475 136 q 523 116 503 136 q 543 68 543 96 q 523 20 543 40 q 475 0 503 0 q 427 20 447 0 q 407 68 407 40 q 427 116 407 96 q 475 136 447 136 z "},"₤":{"ha":678,"x_min":0,"x_max":543,"o":"m 68 136 l 68 305 q 20 325 40 305 q 0 373 0 345 q 20 421 0 401 q 68 441 40 441 l 68 509 q 20 529 40 509 q 0 576 0 549 q 20 624 0 604 q 68 644 40 644 l 68 678 q 147 870 68 791 q 339 949 227 949 q 517 870 438 949 l 517 869 q 519 869 517 869 q 538 821 538 848 q 518 773 538 793 q 471 753 498 753 q 423 773 443 753 q 422 774 422 773 q 339 814 382 814 q 243 774 283 814 q 203 678 203 734 l 203 644 l 441 644 q 489 624 469 644 q 509 576 509 604 q 489 529 509 549 q 441 509 469 509 l 203 509 l 203 441 l 441 441 q 489 421 469 441 q 509 373 509 401 q 489 325 509 345 q 441 305 469 305 l 203 305 l 203 136 l 475 136 q 523 116 503 136 q 543 68 543 96 q 523 20 543 40 q 475 0 503 0 l 68 0 q 20 20 40 0 q 0 68 0 40 q 20 116 0 96 q 68 136 40 136 z "},"€":{"ha":678,"x_min":0,"x_max":538,"o":"m 203 271 q 243 175 203 215 q 339 136 283 136 q 422 176 382 136 q 423 177 422 176 q 471 197 443 197 q 518 177 498 197 q 538 129 538 157 q 519 81 538 101 q 517 80 517 80 l 517 79 q 339 0 438 0 q 147 79 227 0 q 68 271 68 159 l 68 305 q 20 325 40 305 q 0 373 0 345 q 20 421 0 401 q 68 441 40 441 l 68 509 q 20 529 40 509 q 0 576 0 549 q 20 624 0 604 q 68 644 40 644 l 68 678 q 147 870 68 791 q 339 949 227 949 q 517 870 438 949 l 517 869 q 519 869 517 869 q 538 821 538 848 q 518 773 538 793 q 471 753 498 753 q 423 773 443 753 q 422 774 422 773 q 339 814 382 814 q 243 774 283 814 q 203 678 203 734 l 203 644 l 441 644 q 489 624 469 644 q 509 576 509 604 q 489 529 509 549 q 441 509 469 509 l 203 509 l 203 441 l 441 441 q 489 421 469 441 q 509 373 509 401 q 489 325 509 345 q 441 305 469 305 l 203 305 l 203 271 z "},"№":{"ha":678,"x_min":0,"x_max":543,"o":"m 441 882 q 417 872 427 882 q 407 848 407 862 q 417 824 407 833 q 441 814 427 814 q 465 824 455 814 q 475 848 475 833 q 465 872 475 862 q 441 882 455 882 m 136 68 q 116 20 136 40 q 68 0 96 0 q 20 20 40 0 q 0 68 0 40 l 0 882 q 20 929 0 909 q 68 949 40 949 q 116 930 96 949 q 129 911 124 921 l 203 610 l 203 882 q 223 929 203 909 q 271 949 243 949 q 319 929 299 949 q 339 882 339 909 l 339 68 q 319 20 339 40 q 271 0 299 0 q 224 20 243 0 q 210 38 215 28 l 136 339 l 136 68 m 513 920 q 528 905 513 920 q 543 848 543 890 q 513 776 543 806 q 441 746 483 746 q 369 776 399 746 q 339 848 339 806 q 369 920 339 890 q 441 949 399 949 q 513 920 483 949 z "},"≈":{"ha":678,"x_min":0,"x_max":543,"o":"m 68 515 q 20 535 40 515 q 0 583 0 555 q 20 631 0 611 q 101 671 40 651 q 264 644 163 692 q 400 627 354 603 q 475 651 447 651 q 523 631 503 651 q 543 583 543 611 q 523 535 543 555 q 438 492 503 515 q 271 515 373 468 q 135 539 175 564 q 68 515 96 515 m 68 298 q 20 318 40 298 q 0 366 0 338 q 20 414 0 394 q 101 454 40 434 q 264 427 163 475 q 400 410 354 386 q 475 434 447 434 q 523 414 503 434 q 543 366 543 394 q 523 318 543 338 q 438 275 503 298 q 271 298 373 251 q 135 322 175 347 q 68 298 96 298 z "}}}
